<?xml version="1.0" standalone="no"?>
<!DOCTYPE svg PUBLIC "-//W3C//DTD SVG 1.1//EN" "http://www.w3.org/Graphics/SVG/1.1/DTD/svg11.dtd" >
<svg xmlns="http://www.w3.org/2000/svg">
<metadata></metadata>
<defs>
<font id="aakarmedium" horiz-adv-x="0" >
<font-face units-per-em="2048" ascent="1638" descent="-410" />
<missing-glyph horiz-adv-x="1018" />
<glyph />
<glyph />
<glyph unicode="&#xd;" horiz-adv-x="682" />
<glyph unicode=" "  horiz-adv-x="1018" />
<glyph unicode="&#x09;" horiz-adv-x="1018" />
<glyph unicode="&#xa0;" horiz-adv-x="1018" />
<glyph unicode="&#xa81;" d="M-654 1264l24 50l72 24l72 -12l22 -62q24 -164 230 -164q180 0 216 164l18 50l84 18l66 -18l30 -50q-14 -76 -62 -136q-106 -136 -352 -136q-240 0 -356 136q-46 54 -64 136zM-326 1300q2 80 84 80q34 0 62 -24q26 -24 26 -60q0 -32 -26 -52q-28 -24 -62 -24t-60 24 q-24 24 -24 56z" />
<glyph unicode="&#xa82;" d="M-376 1172q0 58 36 94q36 38 92 38t92 -38q38 -42 38 -94q0 -48 -38 -90q-40 -40 -92 -40q-48 0 -90 38q-38 38 -38 92z" />
<glyph unicode="&#xa83;" d="M404 288q0 52 38 90q36 36 90 36t90 -36q36 -38 36 -90q0 -50 -38 -86q-36 -38 -86 -38q-54 0 -92 36t-38 88zM404 750q0 54 38 90q36 36 90 36q52 0 86 -36q34 -34 38 -90q0 -54 -36 -88q-34 -34 -86 -34q-56 0 -92 34q-38 36 -38 88z" />
<glyph unicode="&#xa85;" horiz-adv-x="1442" d="M4 420v52l8 38l22 20h272q44 0 76 34q30 32 30 90q0 114 -114 114h-214l-34 30l-6 50l16 40l26 20h304q92 0 144 -74q54 -74 54 -188q0 -170 -134 -232q-68 -32 -126 -32h-20l10 -52q20 -58 62 -94q60 -52 160 -52q86 0 150 62q66 64 66 152v386l34 50h48l58 -8l32 -42 v-170h192v238l32 38l60 18l66 -16l28 -40v-732h80l22 -18l12 -36l-8 -46l-26 -20h-104h-158v472h-194v-116q0 -140 -122 -230q-116 -76 -268 -76q-374 0 -414 332h-90z" />
<glyph unicode="&#xa86;" horiz-adv-x="1822" d="M4 420l32 -38h90q40 -332 414 -332q152 0 268 76q122 90 122 230v116h194v-472h158h104l26 20l8 46l-12 36l-22 18h-80v732l-28 40l-66 16l-60 -18l-32 -38v-238h-192v170l-32 42l-58 8h-48l-34 -50v-386q0 -88 -66 -152q-64 -62 -150 -62q-100 0 -160 52q-42 36 -62 94 l-10 52h20q58 0 126 32q134 62 134 232q0 114 -54 188q-52 74 -144 74h-304l-26 -20l-16 -40l6 -50l34 -30h214q114 0 114 -114q0 -58 -30 -90q-32 -34 -76 -34h-272l-22 -20l-8 -38v-52zM1484 0h162h104l26 20l8 46l-12 36l-22 18h-80v732l-28 40l-66 16l-60 -18l-32 -38 v-238v-142v-472z" />
<glyph unicode="&#xa87;" horiz-adv-x="1098" d="M82 292q0 106 120 190q-116 56 -116 208q0 92 74 160q62 58 104 58h278l28 -28l10 -48l-12 -46l-28 -20h-150q-100 0 -100 -94l6 -50q18 -66 100 -66h146l34 -30l10 -48l-12 -46l-32 -26h-130q-42 0 -82 -42t-40 -94q0 -58 66 -100q52 -32 132 -32q76 0 136 36 q62 38 62 92v456q0 110 54 152q44 38 108 38h170l28 -24l10 -42l-8 -50l-30 -32h-70q-20 0 -44 -20q-22 -18 -22 -44v-444q0 -122 -114 -192q-104 -64 -264 -64q-422 0 -422 292z" />
<glyph unicode="&#xa88;" horiz-adv-x="1162" d="M82 292q0 90 52 144l52 46q-100 66 -100 208q0 92 74 160q62 58 104 58h278l32 -30l14 -40l-10 -40l-38 -32h-150q-46 0 -74 -34q-30 -36 -30 -82q0 -108 108 -108h146l26 -20l14 -40l-12 -36l-28 -24h-130q-134 0 -134 -108v-14q0 -88 88 -134q62 -32 120 -32h14 q78 0 140 56q54 48 54 96v776q0 102 44 148q44 48 102 48h170l34 -20l12 -40l-10 -38l-34 -26h-72q-66 0 -66 -84v-794q0 -124 -107 -190t-261 -66q-422 0 -422 292z" />
<glyph unicode="&#xa89;" horiz-adv-x="982" d="M82 292v566q0 194 126 308q128 116 340 116h94q172 -26 292 -166v-36l-24 -46l-32 -26h-46l-70 72q-88 70 -216 70q-264 0 -264 -270v-600q0 -54 56 -102q66 -56 172 -56q222 0 222 136q0 62 -36 100q-38 38 -82 38h-154l-42 38v38l12 50l28 20h156q50 0 86 36 q34 34 34 88q0 46 -36 74q-32 26 -84 26h-170l-32 36l-6 38l10 44l28 24h278q86 0 144 -66q56 -64 56 -156q0 -184 -114 -222q62 -28 70 -36q62 -56 62 -176q0 -128 -132 -204q-118 -68 -294 -68h-96q-124 18 -218 98q-118 100 -118 214z" />
<glyph unicode="&#xa8a;" horiz-adv-x="1352" d="M184 292v566q0 194 146 308q132 102 328 102q202 0 362 -118q162 -120 162 -292v-738h96l30 -20v-40l-6 -36l-24 -24h-126h-128v858q0 90 -108 178q-114 92 -255 92t-223 -68q-96 -68 -96 -202v-574q0 -58 50 -108q62 -62 146 -62q66 0 122 34q62 38 62 110 q0 134 -100 134h-124l-24 38l-6 34l6 42l22 28h126q100 0 100 128q0 104 -100 104h-140l-24 26l-6 46l10 50l20 20h228q74 0 118 -66q46 -68 46 -156q0 -118 -60 -182q-38 -40 -60 -40q134 -38 134 -212q0 -132 -108 -204q-92 -68 -240 -68q-140 0 -242 78q-114 86 -114 234 z" />
<glyph unicode="&#xa8b;" horiz-adv-x="1754" d="M50 594l12 58q6 34 80 122q100 118 224 118q110 0 198 -108q64 -78 104 -204q32 -100 26 -118l112 58v388l30 44h62h64l40 -44v-318l228 100q-12 18 -12 72q0 124 116 124q142 0 142 -124q0 -108 -78 -140q56 -44 182 -174q92 -110 92 -224q0 -164 -176 -224 q-58 -20 -116 -20q-154 0 -238 144v42l24 40l34 20l42 -18q58 -86 128 -86q22 0 46 12q98 50 98 122t-82 148q-108 100 -148 184l-284 -136v-372h80l16 -14l4 -26l-8 -24l-12 -16h-102h-174v376l-472 -274l-58 -10l-40 10l-30 24l-24 30l-6 40l24 38l376 172q0 32 -58 172 q-70 170 -142 170q-52 0 -106 -66q-36 -44 -74 -130q-14 -28 -20 -46l-30 -10h-36l-48 42z" />
<glyph unicode="&#xa8d;" horiz-adv-x="1530" d="M4 420v52l8 38l22 20h272q44 0 76 34q30 32 30 90q0 114 -114 114h-214l-34 30l-6 50l16 40l26 20h304q92 0 144 -74q54 -74 54 -188q0 -170 -134 -232q-68 -32 -126 -32h-20l10 -52q20 -58 62 -94q60 -52 160 -52q86 0 150 62q66 64 66 152v386l34 50h48l58 -8l32 -42 v-170h192v238l32 38l60 18l66 -16l28 -40v-732h80l22 -18l12 -36l-8 -46l-26 -20h-104h-158v472h-194v-116q0 -140 -122 -230q-116 -76 -268 -76q-374 0 -414 332h-90zM760 1390l20 36l52 10l52 -8l40 -38q78 -280 282 -280q68 0 128 26l30 -12l12 -26l-18 -50l-22 -24 q-64 -26 -176 -26q-210 0 -326 196q-46 78 -74 196z" />
<glyph unicode="&#xa8f;" horiz-adv-x="1518" d="M4 420v52l8 38l22 20h272q44 0 76 34q30 32 30 90q0 114 -114 114h-214l-34 30l-6 50l16 40l26 20h304q92 0 144 -74q54 -74 54 -188q0 -170 -134 -232q-68 -32 -126 -32h-20l10 -52q20 -58 62 -94q60 -52 160 -52q86 0 150 62q66 64 66 152v386l34 50h48l58 -8l32 -42 v-170h192v238l32 38l60 18l66 -16l28 -40v-732h80l22 -18l12 -36l-8 -46l-26 -20h-104h-158v472h-194v-116q0 -140 -122 -230q-116 -76 -268 -76q-374 0 -414 332h-90zM668 1408l22 38l60 26l60 -10l62 -32l44 -44l370 -454h-164l-448 442z" />
<glyph unicode="&#xa90;" horiz-adv-x="1518" d="M4 420v52l8 38l22 20h272q44 0 76 34q30 32 30 90q0 114 -114 114h-214l-34 30l-6 50l16 40l26 20h304q92 0 144 -74q54 -74 54 -188q0 -170 -134 -232q-68 -32 -126 -32h-20l10 -52q20 -58 62 -94q60 -52 160 -52q86 0 150 62q66 64 66 152v386l34 50h48l58 -8l32 -42 v-170h192v238l32 38l60 18l66 -16l28 -40v-732h80l22 -18l12 -36l-8 -46l-26 -20h-104h-158v472h-194v-116q0 -140 -122 -230q-116 -76 -268 -76q-374 0 -414 332h-90zM622 1260v44l28 46l52 16h50l302 -266l-190 254l-4 26l16 32l36 28h64l54 -14l260 -486h-156l-506 298z " />
<glyph unicode="&#xa91;" horiz-adv-x="1876" d="M4 420l32 -38h90q40 -332 414 -332q152 0 268 76q122 90 122 230v116h194v-472h158h104l26 20l8 46l-12 36l-22 18h-80v732l-28 40l-66 16l-60 -18l-32 -38v-238h-192v170l-32 42l-58 8h-48l-34 -50v-386q0 -88 -66 -152q-64 -62 -150 -62q-100 0 -160 52q-42 36 -62 94 l-10 52h20q58 0 126 32q134 62 134 232q0 114 -54 188q-52 74 -144 74h-304l-26 -20l-16 -40l6 -50l34 -30h214q114 0 114 -114q0 -58 -30 -90q-32 -34 -76 -34h-272l-22 -20l-8 -38v-52zM1178 1390l20 36l52 10l52 -8l40 -38q78 -280 282 -280q68 0 128 26l30 -12l12 -26 l-18 -50l-22 -24q-64 -26 -176 -26q-210 0 -326 196q-46 78 -74 196zM1484 0h162h104l26 20l8 46l-12 36l-22 18h-80v732l-28 40l-66 16l-60 -18l-32 -38v-238v-142v-472z" />
<glyph unicode="&#xa93;" horiz-adv-x="1852" d="M4 420l32 -38h90q40 -332 414 -332q152 0 268 76q122 90 122 230v116h194v-472h158h104l26 20l8 46l-12 36l-22 18h-80v732l-28 40l-66 16l-60 -18l-32 -38v-238h-192v170l-32 42l-58 8h-48l-34 -50v-386q0 -88 -66 -152q-64 -62 -150 -62q-100 0 -160 52q-42 36 -62 94 l-10 52h20q58 0 126 32q134 62 134 232q0 114 -54 188q-52 74 -144 74h-304l-26 -20l-16 -40l6 -50l34 -30h214q114 0 114 -114q0 -58 -30 -90q-32 -34 -76 -34h-272l-22 -20l-8 -38v-52zM1036 1408l22 38l60 26l60 -10l62 -32l44 -44l370 -454h-164l-448 442zM1484 0h162 h104l26 20l8 46l-12 36l-22 18h-80v732l-28 40l-66 16l-60 -18l-32 -38v-238v-142v-472z" />
<glyph unicode="&#xa94;" horiz-adv-x="1878" d="M4 420l32 -38h90q40 -332 414 -332q152 0 268 76q122 90 122 230v116h194v-472h158h104l26 20l8 46l-12 36l-22 18h-80v732l-28 40l-66 16l-60 -18l-32 -38v-238h-192v170l-32 42l-58 8h-48l-34 -50v-386q0 -88 -66 -152q-64 -62 -150 -62q-100 0 -160 52q-42 36 -62 94 l-10 52h20q58 0 126 32q134 62 134 232q0 114 -54 188q-52 74 -144 74h-304l-26 -20l-16 -40l6 -50l34 -30h214q114 0 114 -114q0 -58 -30 -90q-32 -34 -76 -34h-272l-22 -20l-8 -38v-52zM984 1260v44l28 46l52 16h50l302 -266l-190 254l-4 26l16 32l36 28h64l54 -14 l260 -486h-156l-506 298zM1484 0h162h104l26 20l8 46l-12 36l-22 18h-80v732l-28 40l-66 16l-60 -18l-32 -38v-238v-142v-472z" />
<glyph unicode="&#xa95;" horiz-adv-x="1140" d="M60 436v40l20 36l348 40q-32 0 -112 52q-98 62 -98 136q0 100 102 148q84 40 208 40q84 0 180 -18q86 -16 112 -24l22 -28v-42v-40l-28 -20h-20q-90 36 -188 36q-178 0 -178 -80l6 -38q12 -34 56 -64q44 -28 74 -28l490 68l38 -18l14 -44v-46l-22 -30h-364 q228 -96 228 -282q0 -244 -416 -244q-140 0 -288 74l-116 70l-10 30v46l28 38l54 14h52q0 -6 30 -16q18 -22 72 -60q94 -62 178 -62q82 0 146 34q74 38 74 108q0 78 -90 142q-70 50 -94 50l-462 -86l-38 32z" />
<glyph unicode="&#xa96;" horiz-adv-x="1320" d="M116 844l10 42l24 26h178q56 0 98 -46q30 -38 30 -110v-266q0 -104 98 -104q104 0 104 100v296l28 38l48 14l54 -10l40 -42v-130h170v-154h-166v-32q0 -80 -64 -148q-78 -82 -210 -82q-124 0 -206 78q-76 72 -76 170l-2 234v40q-10 12 -34 12h-92l-26 28zM994 0v472v142 v238l32 38l60 18l66 -16l28 -40v-732h80l22 -18l12 -36l-8 -46l-26 -20h-104h-162z" />
<glyph unicode="&#xa97;" horiz-adv-x="1162" d="M110 414l18 32l32 16h46l26 -22l10 -16q4 -20 40 -64q58 -74 128 -74t128 56q52 50 52 162q0 90 -46 154q-44 62 -144 62q-60 0 -112 -14q-26 -6 -38 -10q-2 -8 -18 4l-20 28v40l6 44l22 28q70 20 166 20q180 0 270 -98q62 -68 76 -110q10 -32 10 -74v-98 q-20 -170 -134 -264q-90 -74 -216 -74q-130 0 -226 98q-74 76 -74 166q0 4 -2 8zM844 0v472v142v238l32 38l60 18l66 -16l28 -40v-732h80l22 -18l12 -36l-8 -46l-26 -20h-104h-162z" />
<glyph unicode="&#xa98;" horiz-adv-x="1138" d="M130 350q0 112 124 184q-30 10 -66 48q-60 60 -58 134q4 112 94 166q76 50 194 50q150 0 214 -24l22 -26l10 -44l-6 -44l-22 -24l-14 -4q-62 22 -130 20q-190 -4 -190 -94q0 -110 108 -110h184l28 -20l6 -44l-4 -46l-28 -28h-182q-110 0 -110 -106q0 -104 192 -116 q100 -6 210 60q84 54 100 82l-2 -180q-24 -24 -106 -66q-108 -50 -200 -50q-146 0 -248 66q-120 76 -120 216zM804 0l2 858l20 30l28 22l38 4l32 -4l34 -24l12 -28v-738h104l20 -20l6 -38l-6 -40l-20 -22h-126h-144z" />
<glyph unicode="&#xa99;" horiz-adv-x="1126" d="M82 180v56l30 50l60 18l66 -16q12 -26 86 -86q102 -80 200 -80t168 44q64 42 64 106l-6 38q-26 72 -160 108q-176 46 -264 98q-104 66 -104 160q-2 252 364 252q98 0 192 -30l34 -28l16 -52l-20 -46l-24 -22h-26q-76 34 -176 34q-170 0 -170 -102q0 -42 84 -74 q46 -18 162 -46q136 -38 210 -106q80 -68 80 -160q0 -162 -128 -246q-110 -74 -286 -74q-178 0 -324 94q-96 60 -128 110zM870 636q0 46 34 80t76 34q44 0 78 -34t34 -80q0 -40 -34 -74q-36 -32 -80 -32q-40 0 -76 32q-32 32 -32 74z" />
<glyph unicode="&#xa9a;" horiz-adv-x="1146" d="M96 470l12 48l26 26h270q48 0 78 30q28 28 32 84v40q-10 40 -44 54l-46 12h-20h-226l-30 28v42l10 44l22 30h300q86 0 148 -72q58 -68 56 -178q0 -152 -106 -218q-68 -42 -160 -42q-28 0 -32 2q24 -176 184 -176h12q72 0 168 70q84 60 88 82v-180q-30 -32 -102 -70 q-102 -54 -194 -54q-186 0 -272 158q-28 46 -54 170h-84l-28 34zM830 0v472v142v238l32 38l60 18l66 -16l28 -40v-732h80l22 -18l12 -36l-8 -46l-26 -20h-104h-162z" />
<glyph unicode="&#xa9b;" horiz-adv-x="1198" d="M98 696q0 88 56 152q52 60 116 60h200l24 -10l18 -12l6 -50l-12 -40l-22 -30h-116q-94 0 -94 -90q0 -48 28 -78t64 -30h114l22 -28l8 -50l-10 -40l-22 -32h-60q-40 0 -72 -38q-34 -40 -34 -76q6 -158 250 -158q214 0 312 214q-36 -4 -58 -4q-252 0 -252 250q0 124 62 214 q64 96 172 98q116 0 184 -100q72 -106 72 -306v-20q0 -192 -130 -338q-144 -158 -358 -158q-188 0 -300 60q-148 80 -140 248q4 112 136 188q-34 0 -84 36q-80 60 -80 168zM704 622q-4 -46 28 -96q30 -48 76 -48q44 0 68 38q28 40 28 102q0 66 -30 110q-28 44 -68 44 q-94 0 -102 -150z" />
<glyph unicode="&#xa9c;" horiz-adv-x="1278" d="M82 632q0 136 74 216q72 84 192 84t238 -92q84 -64 160 -170q58 -78 58 -94l286 348l60 2l58 -22l28 -56l-8 -46l-24 -34l-314 -318q12 -10 44 -82q36 -80 36 -136v-12q0 -66 -36 -148q-14 -34 -54 -54q-42 -24 -86 -24h-10q-84 4 -134 64q-52 62 -52 166q0 68 48 164 q34 70 48 80l-8 22q-24 40 -108 138q-132 158 -210 158q-56 0 -88 -48q-32 -50 -32 -108q0 -78 54 -120q34 -28 76 -28q38 0 76 24q34 20 32 24l26 6l24 -22l8 -48l-22 -52l-36 -34l-38 -24q-38 -20 -90 -20q-96 0 -176 68q-100 84 -100 228zM732 228q0 24 16 56 q30 62 38 58q36 -16 54 -98q14 -66 -12 -92q-40 -40 -84 -4q-14 12 -12 80z" />
<glyph unicode="&#xa9d;" horiz-adv-x="1184" d="M34 128l10 56l24 12l28 -10q66 -52 114 -52q114 0 172 118q40 82 42 164v110q-6 72 -26 132q-50 128 -154 128q-46 0 -112 -40l-28 -6l-28 32l-6 42l16 52l32 20q110 36 174 36q246 -6 294 -236q28 22 138 68q74 16 150 -8q20 20 32 72q8 40 8 90l26 28l34 22h36l38 -4 l34 -18l20 -20l12 -28q-6 -64 -44 -118q-18 -26 -58 -56q-40 -24 -42 -26q36 -28 60 -66q58 -88 62 -208q0 -172 -62 -278q-70 -128 -204 -136q-36 -2 -96 10q-56 12 -56 14l-30 30l-6 48v50l24 18l26 -6q36 -32 68 -30q56 2 100 74q38 70 38 194q0 90 -42 152t-118 62 q-46 0 -86 -48q-32 -38 -38 -56v-94q0 -164 -100 -288q-102 -132 -250 -132q-30 0 -42 2q-48 6 -138 52l-36 30z" />
<glyph unicode="&#xa9e;" horiz-adv-x="1202" d="M90 254l10 64l40 30l26 2q0 -6 18 -6q16 -18 50 -40q64 -48 114 -48q196 0 208 258l-6 64q-14 68 -60 118q-62 66 -142 66q-98 0 -150 -36l-20 2l-32 20l-18 30l4 38l24 32l26 20q98 56 174 54q198 -6 298 -160q46 -70 64 -166h162v-160h-162l-10 -58q-2 -16 -10 -40 q-38 -110 -104 -172q-88 -92 -228 -92q-64 0 -164 60q-74 44 -88 68zM872 0l2 858l20 30l28 22l38 4l32 -4l34 -24l12 -28v-738h104l20 -20l6 -38l-6 -40l-20 -22h-126h-144z" />
<glyph unicode="&#xa9f;" horiz-adv-x="952" d="M116 326q0 158 274 242q194 58 192 128q-2 60 -50 78q-30 10 -104 10q-70 0 -162 -44l-26 2l-28 36l-8 46l18 46l30 28q76 26 184 24q142 -4 224 -58q94 -60 92 -178q0 -90 -72 -144q-60 -44 -218 -92q-160 -48 -164 -166q0 -146 198 -146q94 0 186 88q42 42 64 78l22 10 h24l24 -16l20 -34l12 -54v-30q-6 -12 -14 -24q-32 -44 -82 -76q-112 -76 -266 -76q-152 0 -254 74q-116 82 -116 248z" />
<glyph unicode="&#xaa0;" horiz-adv-x="1010" d="M132 298q0 136 104 210q60 44 116 52q-88 50 -86 118q0 118 98 182q90 62 220 62q100 0 166 -24l20 -32l12 -38l2 -26l-8 -30l-20 -12l-28 -4q-58 30 -148 30q-134 0 -140 -114l4 -20q16 -26 68 -44q30 -8 144 -30q122 -24 186 -100q62 -70 62 -168q0 -162 -114 -250 q-98 -74 -252 -74q-188 0 -298 76q-108 78 -108 236zM304 332q0 -98 70 -152q66 -54 160 -54q64 0 124 52q62 48 62 124q0 104 -132 144q-68 30 -136 50q-22 0 -74 -40q-70 -50 -74 -124z" />
<glyph unicode="&#xaa1;" horiz-adv-x="1126" d="M82 180v56l30 50l60 18l66 -16q12 -26 86 -86q102 -80 200 -80t168 44q64 42 64 106l-6 38q-26 72 -160 108q-176 46 -264 98q-104 66 -104 160q-2 252 364 252q98 0 192 -30l34 -28l16 -52l-20 -46l-24 -22h-26q-76 34 -176 34q-170 0 -170 -102q0 -42 84 -74 q46 -18 162 -46q136 -38 210 -106q80 -68 80 -160q0 -162 -128 -246q-110 -74 -286 -74q-178 0 -324 94q-96 60 -128 110z" />
<glyph unicode="&#xaa2;" horiz-adv-x="978" d="M82 304q-2 176 296 258q218 56 218 128q0 86 -184 86q-80 0 -182 -46l-18 4l-22 26l-14 30l-6 34l16 48l30 26q86 28 208 24q160 -4 256 -58q116 -66 114 -188q0 -100 -84 -156q-72 -48 -246 -84q-176 -36 -176 -148q0 -114 100 -154q42 -20 84 -20q10 0 20 2q0 30 6 60 q10 68 48 106q50 60 150 60q102 0 158 -40t52 -124q-4 -92 -148 -154q-120 -52 -252 -48q-420 4 -424 328zM632 124q-22 16 0 56q14 26 52 36q48 14 64 -4q22 -24 4 -68q-6 -14 -40 -20q-64 -10 -80 0z" />
<glyph unicode="&#xaa3;" horiz-adv-x="1224" d="M98 370l2 498l18 34l32 22l42 6h36l34 -24l26 -38v-502q0 -110 62 -184q66 -74 164 -74q60 0 160 28q68 18 76 26l38 4l26 -20l12 -34l-4 -68l-18 -30q-30 -14 -114 -28q-112 -18 -184 -16q-186 6 -304 130q-104 114 -104 270zM372 432l14 42l36 8q62 -34 100 -34 q132 6 132 174q0 80 -44 126q-38 38 -88 38q-12 0 -26 -2q-12 0 -64 -30l-20 2l-26 24v38l8 40l30 28q64 34 134 32q114 -4 192 -88q80 -86 76 -216q-4 -144 -76 -224q-74 -82 -210 -82q-58 0 -118 38l-38 44zM884 0l2 858l20 30l28 22l38 4l32 -4l34 -24l12 -28v-738h104 l20 -20l6 -38l-6 -40l-20 -22h-126h-144z" />
<glyph unicode="&#xaa4;" horiz-adv-x="1022" d="M130 390q0 136 86 234t206 98l288 2l4 -146h-236q-80 0 -128 -54q-54 -60 -54 -164q0 -210 222 -210q14 0 24 2l28 -6l20 -22l6 -48l-14 -40l-24 -22l-40 -10q-32 -8 -108 8q-112 24 -184 96q-96 100 -96 282zM702 -4l2 858l20 30l28 22l38 4l32 -4l34 -24l12 -28v-738 h104l20 -20l6 -38l-6 -40l-20 -22h-126h-144z" />
<glyph unicode="&#xaa5;" horiz-adv-x="1148" d="M122 426q0 72 52 82q22 4 116 4l90 6q144 26 144 148q0 60 -32 102q-34 44 -78 44q-82 0 -82 -92q0 -40 56 -86l4 -16l-24 -22l-42 -6l-42 8l-30 24q-78 54 -78 128q0 92 76 148q66 50 160 50q122 0 192 -70q72 -72 72 -198q0 -124 -72 -196q-66 -66 -172 -74l-84 2h-2 q-52 0 -52 -36q0 -46 52 -94q62 -48 136 -48q94 -6 224 72q100 60 112 92v-168q-46 -40 -110 -68q-110 -50 -214 -50q-148 6 -252 74q-120 86 -120 240zM812 0l2 858l20 30l28 22l38 4l32 -4l34 -24l12 -28v-738h104l20 -20l6 -38l-6 -40l-20 -22h-126h-144z" />
<glyph unicode="&#xaa6;" horiz-adv-x="924" d="M106 308q0 126 124 206q-18 0 -62 38q-62 56 -62 138q0 116 110 182q92 56 218 56q100 0 238 -30l24 -12l16 -26l2 -34l-6 -28l-12 -28l-24 -18q-96 30 -164 30q-214 0 -214 -116q0 -42 37 -66t81 -24h228l22 -10l18 -22l8 -36l-6 -32l-14 -20l-28 -16h-218 q-48 0 -88 -36q-36 -40 -38 -90l4 -48q10 -46 50 -80q56 -50 132 -50q128 -6 250 144h32l34 -12l28 -34l8 -26v-38v-22l-8 -24q-142 -138 -338 -138q-158 0 -264 82q-118 92 -118 240z" />
<glyph unicode="&#xaa7;" horiz-adv-x="1122" d="M106 762q0 132 194 186q48 14 48 70q0 18 -4 36l20 34h32l46 -26l40 -58q10 -36 10 -58q0 -82 -100 -126q-62 -28 -76 -40q-24 -24 -24 -56q0 -38 40 -74q44 -36 78 -36h192l2 -142h-192q-118 0 -118 -132q0 -56 64 -90q52 -28 130 -28q86 0 208 76q100 60 116 94v-198 l-116 -60q-134 -58 -224 -62l-90 6q-84 14 -154 58q-112 76 -112 206q0 114 148 186q-40 24 -70 56q-72 66 -84 128q-4 28 -4 50zM804 0l2 858l20 30l28 22l38 4l32 -4l34 -24l12 -28v-738h104l20 -20l6 -38l-6 -40l-20 -22h-126h-144z" />
<glyph unicode="&#xaa8;" horiz-adv-x="1172" d="M158 456q0 120 72 192q70 66 168 66h468l2 -142h-226l24 -38q20 -46 20 -122q0 -88 -68 -150t-180 -62q-128 0 -206 70q-74 70 -74 186zM324 452q4 -114 116 -116q46 -4 82 30q36 30 36 76q0 96 -54 130q-14 8 -46 8q-132 0 -134 -128zM856 0l2 858l20 30l28 22l38 4 l32 -4l34 -24l12 -28v-738h104l20 -20l6 -38l-6 -40l-20 -22h-126h-144z" />
<glyph unicode="&#xaaa;" horiz-adv-x="978" d="M72 842l10 44l20 22h132q42 0 82 -44q38 -42 38 -116v-314q0 -56 42 -86q40 -30 84 -30l58 6q22 6 48 14q52 18 62 36v-152q-20 -18 -70 -36q-68 -28 -136 -26q-92 2 -168 74q-84 76 -84 186v300q4 22 -6 32q-8 10 -28 10h-56l-24 34zM640 0l2 858l20 30l28 22l38 4 l32 -4l34 -24l12 -28v-738h104l20 -20l6 -38l-6 -40l-20 -22h-126h-144z" />
<glyph unicode="&#xaab;" horiz-adv-x="1156" d="M50 456l8 56l24 36l310 32q-142 50 -138 168q4 90 90 138q76 42 194 42q86 0 192 -16q76 -16 94 -26l22 -22l8 -42l-18 -38l-18 -14l-24 -2q-64 22 -180 16q-166 -6 -166 -120q0 -26 40 -46q34 -16 40 -16l530 68l32 -16l26 -48l-4 -48l-22 -30l-18 -14l-334 -26 q26 0 112 -62q102 -80 102 -162v-10q-6 -146 -156 -214q-100 -44 -236 -44q-46 0 -54 4l246 -198l14 -30l-14 -34l-48 -18l-38 2l-44 12l-44 14l-40 36l-182 226q-90 24 -144 58q-26 10 -92 60l-8 24l4 44l34 40l52 12l40 -2l28 -12q20 -24 66 -50q80 -46 178 -46h24 q78 0 138 36q72 42 78 120l-6 46q-28 88 -192 132l-432 -92l-26 6l-24 24z" />
<glyph unicode="&#xaac;" horiz-adv-x="1290" d="M100 582q0 -364 290 -408h94q136 2 226 80q94 82 96 208v42h184v148h-184v86l-16 40l-30 16l-40 6l-40 -10l-30 -16l-18 -36v-224q0 -50 -26 -102q-46 -92 -142 -92q-174 0 -182 238v26q0 104 32 156q32 46 84 46q64 0 98 -6q14 2 28 2l20 28v38l-8 40l-20 18 q-76 22 -142 22q-100 0 -176 -66q-98 -96 -98 -280zM980 0v858l20 30l28 22l38 4l32 -4l34 -24l12 -28v-738h104l20 -20l6 -38l-6 -40l-20 -22h-126h-142z" />
<glyph unicode="&#xaad;" horiz-adv-x="1282" d="M120 494q0 -136 78 -272q60 -102 90 -128l42 -10l52 8l26 28l8 36q-8 22 -20 32q-22 26 -50 78q-60 114 -60 248q0 130 64 224q64 90 150 90q56 -2 100 -36q44 -32 44 -86v-104q-132 0 -138 -158q0 -86 38 -134q44 -54 118 -54h10q68 0 106 50q36 44 36 102v44h166v150 h-168v100q0 110 -92 188q-86 74 -196 74q-176 0 -288 -120q-116 -128 -116 -350zM966 0v858l20 30l28 22l38 4l32 -4l34 -24l12 -28v-738h104l20 -20l6 -38l-6 -40l-20 -22h-126h-142z" />
<glyph unicode="&#xaae;" horiz-adv-x="876" d="M20 792v46l8 46l20 24q94 18 146 18q206 0 206 -196v-180h178v-146h-178v-62q0 -50 -48 -86q-46 -34 -122 -34q-82 0 -120 46q-44 46 -44 120q0 164 162 164v100q0 64 -6 84q-12 46 -56 46q-48 0 -102 -18q-10 4 -22 6zM568 0v858l20 30l28 22l38 4l32 -4l34 -24l12 -28 v-738h104l20 -20l6 -38l-6 -40l-20 -22h-126h-142z" />
<glyph unicode="&#xaaf;" horiz-adv-x="1102" d="M120 458q0 -166 132 -272q124 -98 278 -98q142 0 274 98v176q-20 -30 -92 -68q-106 -56 -194 -56q-98 0 -154 58q-34 30 -42 64l-4 36q4 42 46 42q22 0 44 -4q20 -4 48 -4q186 0 190 224q0 104 -54 180q-54 74 -140 74h-224l-24 -22l-10 -44l6 -38l18 -28l20 -14h124 q102 0 102 -102q0 -48 -30 -84q-30 -34 -82 -34h-146q-34 0 -58 -20q-28 -24 -28 -54v-10zM794 0v858l20 30l28 22l38 4l32 -4l34 -24l12 -28v-738h104l20 -20l6 -38l-6 -40l-20 -22h-126h-142z" />
<glyph unicode="&#xab0;" horiz-adv-x="952" d="M126 420l6 46l14 18l22 8h350q56 0 100 28q60 36 60 112q0 132 -162 132h-330l-24 36l-6 42l16 46l16 20h398q106 0 180 -78q76 -78 76 -196v-64q-24 -118 -158 -178q-18 -8 -34 -14q-84 -26 -198 -30l38 -158l8 -26q2 -8 16 -16q6 -4 26 -4h286l28 -6l18 -18v-48v-46 l-20 -18l-22 -8h-406q-36 0 -56 18q-18 18 -32 66l-60 264h-106l-26 10l-12 24z" />
<glyph unicode="&#xab2;" horiz-adv-x="1158" d="M80 474q0 174 112 302t274 134q94 4 190 -20l24 -24l10 -44v-40l-28 -18l-26 -4q-48 14 -86 14q-126 0 -200 -80q-76 -82 -76 -222q0 -150 74 -234q76 -78 200 -78q36 0 76 14l28 10l28 -4l26 -28v-48l-30 -40l-22 -20q-90 -24 -162 -24q-164 0 -288 132 q-124 134 -124 322zM432 468l12 50l30 26h352v-142h-338l-20 10l-28 24zM816 0v858l20 30l28 22l38 4l32 -4l34 -24l12 -28v-738h106l20 -20l6 -38l-6 -40l-20 -22h-126h-144z" />
<glyph unicode="&#xab3;" horiz-adv-x="1282" d="M94 504q0 174 56 280q60 134 190 134q42 0 76 -10q38 -16 58 -22l32 -24v-54v-28l-34 -28q-16 10 -80 22l-26 -6q-28 -12 -50 -60q-32 -76 -32 -202q0 -108 36 -180q42 -92 112 -90q144 4 144 274q0 398 294 398q108 0 194 -60q98 -70 98 -200v-612l-24 -38l-66 -16 l-56 16l-40 38v598q0 58 -28 100q-30 42 -84 42q-118 0 -130 -324q-6 -168 -82 -258q-80 -92 -214 -92q-140 0 -242 116q-102 118 -102 286z" />
<glyph unicode="&#xab5;" horiz-adv-x="1086" d="M80 502q0 144 100 228q88 72 234 82q86 0 166 -26l22 -28l14 -32l-6 -36l-20 -26q-10 -4 -22 -8q-44 10 -106 10q-86 -6 -122 -34q-58 -42 -58 -148q0 -184 222 -184q80 0 166 48q64 36 78 56v-168q-144 -106 -296 -106q-156 0 -252 76q-120 98 -120 296zM738 0v858 l20 30l28 22l38 4l32 -4l34 -24l12 -28v-738h104l20 -20l6 -38l-6 -40l-20 -22h-126h-142z" />
<glyph unicode="&#xab6;" horiz-adv-x="1214" d="M80 246v146h262q94 0 164 64q70 62 76 170q0 90 -52 136q-44 40 -120 44q-62 2 -102 -22q-42 -26 -44 -74q-2 -64 84 -76q32 0 64 22l32 -8l20 -30l-6 -44l-20 -30q-36 -20 -106 -20h-12q-90 0 -162 54q-68 54 -68 144q0 102 84 160q82 56 216 56q166 0 274 -84 q110 -90 110 -240q-2 -206 -180 -282q-74 -32 -178 -42q92 -16 176 -100l6 -6q46 -44 80 -110q22 -40 30 -60l-10 -26l-30 -26l-62 -8l-46 14l-46 22l-24 24l-16 52q-28 66 -70 112q-54 52 -110 62q-34 6 -132 6h-82zM860 0v858l20 30l28 22l38 4l32 -4l34 -24l12 -28v-738 h104l20 -20l6 -38l-6 -40l-20 -22h-126h-142z" />
<glyph unicode="&#xab7;" horiz-adv-x="1144" d="M40 800l40 -36h78q28 0 34 -10q8 -12 6 -26v-304q0 -108 108 -186q94 -68 208 -72q86 -2 188 42q70 30 96 54v244l-492 402h-224l-28 -22l-14 -46v-40zM392 438q0 -60 40 -92q40 -36 102 -36q110 0 186 52q56 38 62 60l-390 312v-296zM794 0v858l20 30l28 22l38 4l32 -4 l34 -24l12 -28v-738h104l20 -20l6 -38l-6 -40l-20 -22h-126h-142z" />
<glyph unicode="&#xab8;" horiz-adv-x="1226" d="M74 430l8 -30l20 -30l24 -14h96l60 -272q10 -50 32 -66q26 -18 56 -18h346l24 8l16 20l6 46l-10 48l-12 20h-24l-218 2q-18 0 -26 4q-14 8 -18 16l-6 26l-38 166q92 0 158 42q72 58 88 84h218v134h-172v76q-4 80 -46 132q-70 84 -172 84h-306l-26 -24l-14 -40l8 -42 l32 -38h232q48 0 84 -34q36 -36 36 -94q4 -52 -34 -94t-82 -42h-278l-30 -4l-20 -20zM868 0v858l20 30l28 22l38 4l32 -4l34 -24l12 -28v-738h104l20 -20l6 -38l-6 -40l-20 -22h-126h-142z" />
<glyph unicode="&#xab9;" horiz-adv-x="1026" d="M142 368q-10 238 222 324q-36 60 -36 110q0 138 246 138h14q112 0 182 -32l16 -18l6 -44v-32l-18 -24l-16 -4q-12 6 -34 14q-50 22 -106 26q-60 0 -86 -10q-50 -22 -50 -68q0 -42 66 -54q98 -18 132 -22q94 -18 152 -62q90 -64 90 -168q0 -126 -82 -176q-56 -32 -176 -34 q-46 0 -112 12q-30 6 -44 8q-10 2 -12 4l-28 30v40l8 40l16 14l20 6q34 -6 112 -18h56q16 4 32 12q46 22 46 64q0 66 -78 106q-62 32 -154 32q-86 0 -144 -50q-64 -52 -66 -158v-68q14 -86 80 -146q86 -78 196 -82q174 -4 290 80l22 -4l18 -20l8 -44l-12 -38l-22 -36 q-118 -66 -304 -66q-202 0 -324 116q-120 114 -126 302z" />
<glyph unicode="&#xaba;" />
<glyph unicode="&#xabc;" horiz-adv-x="2" d="M-632 30q88 86 178 0q88 -84 0 -170q-90 -86 -178 -2q-90 86 0 172zM-630 28h176v-172h-176v172z" />
<glyph unicode="&#xabd;" horiz-adv-x="780" d="M92 332q0 24 18 24q32 0 68 -62q20 -34 64 -60q46 -32 100 -32q190 0 190 164q0 88 -92 182l-174 150q-92 80 -92 118q0 50 50 88q52 40 118 40h350l26 -8l24 -32l10 -40l-10 -22l-28 -4h-348q-48 0 -48 -62q0 -46 92 -122l172 -142q88 -86 92 -162v-2q0 -96 -70 -170 q-72 -80 -192 -80q-100 0 -184 54q-84 56 -122 132q-14 28 -14 48z" />
<glyph unicode="&#xabe;" horiz-adv-x="506" d="M142 0l2 858l20 30l28 22l38 4l32 -4l34 -24l12 -28v-738h104l20 -20l6 -38l-6 -40l-20 -22h-126h-144z" />
<glyph unicode="&#xabf;" horiz-adv-x="506" d="M132 52l14 -34l22 -18l134 -2l150 2v908q0 124 66 206q68 90 198 90q126 0 224 -56q70 -38 120 -104l36 -56l46 -20l64 8l44 32l10 50q-26 74 -124 154q-172 140 -472 144q-192 2 -298 -122q-104 -118 -104 -326l2 -788h-98l-26 -20z" />
<glyph unicode="&#xac0;" horiz-adv-x="580" d="M-364 1128v20q6 226 254 226q160 0 304 -180q140 -170 140 -352l2 -722h150l20 -20l6 -38l-6 -40l-20 -22h-188h-156l2 842q0 124 -48 232q-64 144 -172 148q-108 6 -108 -114q0 -50 22 -122l-22 -26l-52 -12l-36 16l-40 22q-52 58 -52 142z" />
<glyph unicode="&#xac1;" d="M-686 -250l18 34l36 20l46 -2q36 -42 78 -74q92 -76 158 -82h66q40 6 68 26q44 30 44 74q0 114 -122 114q-60 0 -118 -48l-30 2l-32 2l-30 28l-12 32l4 42l10 24q88 58 222 58q126 0 204 -76q80 -78 80 -202q0 -100 -74 -162q-80 -68 -210 -68q-22 0 -66 4 q-166 20 -336 198z" />
<glyph unicode="&#xac2;" d="M-574 -254q0 118 86 190q76 64 184 64q20 0 42 -2q232 -18 380 -448l-2 -40l-32 -44l-40 -10l-58 12l-14 16q-44 116 -72 170q-86 178 -166 198q-8 2 -24 2q-52 0 -78 -32q-30 -30 -30 -72l4 -44q4 -16 14 -30q20 -28 56 -32l44 2q18 4 30 14l30 -10l32 -30l4 -48l-8 -30 q-36 -40 -118 -40q-18 0 -36 2q-86 8 -156 82q-72 74 -72 160z" />
<glyph unicode="&#xac3;" d="M-716 -264q0 112 76 188q80 76 178 76h258l30 -8l18 -22l12 -40l-16 -42l-20 -18l-30 -8h-178q-62 0 -108 -30q-56 -36 -56 -92q0 -156 202 -156q80 0 178 68l26 10l30 -8l26 -34l14 -40l-14 -46q-6 -12 -14 -24q-108 -60 -258 -60q-148 0 -252 82q-102 80 -102 204z" />
<glyph unicode="&#xac4;" horiz-adv-x="42" d="M-574 -216q0 96 62 162q58 64 158 64h150l36 -10l18 -14l14 -38l-18 -38l-22 -16l-28 -8h-128q-116 0 -116 -94l6 -36q12 -32 50 -52q50 -28 110 -28q54 0 104 20l52 32l30 -2l28 -14l18 -32l-4 -38q4 -6 -18 -30q-68 -60 -192 -60l-76 6q-68 12 -128 50 q-106 70 -106 176zM-500 -546q0 98 62 160q58 64 158 64h52v-124h-30q-116 0 -116 -94l6 -36l16 -26q14 -14 34 -26q50 -28 110 -28q56 0 104 22l50 30l40 2l24 -30l12 -42l-8 -34q-66 -68 -204 -72l-76 6q-68 12 -130 52q-104 68 -104 176z" />
<glyph unicode="&#xac5;" d="M-758 1390l20 36l52 10l52 -8l40 -38q78 -280 282 -280q68 0 128 26l30 -12l12 -26l-18 -50l-22 -24q-64 -26 -176 -26q-210 0 -326 196q-46 78 -74 196z" />
<glyph unicode="&#xac7;" d="M-750 1408l22 38l60 26l60 -10l62 -32l44 -44l370 -454h-164l-448 442z" />
<glyph unicode="&#xac8;" d="M-810 1260l2 44l28 46l52 20l50 -4l302 -266l-190 254l-4 26l16 32l36 28h64l54 -14l260 -486h-156l-506 298z" />
<glyph unicode="&#xac9;" horiz-adv-x="442" d="M-240 1390l20 36l52 10l52 -8l40 -38q78 -280 282 -280q68 0 128 26l30 -12l12 -26l-18 -50l-22 -24q-64 -26 -176 -26q-210 0 -326 196q-46 78 -74 196zM90 0h162h104l26 20l8 46l-12 36l-22 18h-80v732l-28 40l-66 16l-60 -18l-32 -38v-238v-142v-472z" />
<glyph unicode="&#xacb;" horiz-adv-x="442" d="M-372 1408l22 38l60 26l60 -10l62 -32l44 -44l370 -454h-164l-448 442zM76 0h162h104l26 20l8 46l-12 36l-22 18h-80v732l-28 40l-66 16l-60 -18l-32 -38v-238v-142v-472z" />
<glyph unicode="&#xacc;" horiz-adv-x="438" d="M-422 1260l2 44l28 46l52 20l50 -4l302 -266l-190 254l-4 26l16 32l36 28h64l54 -14l260 -486h-156l-506 298zM80 0h162h104l26 20l8 46l-12 36l-22 18h-80v732l-28 40l-66 16l-60 -18l-32 -38v-238v-142v-472z" />
<glyph unicode="&#xacd;" d="M-412 -100h242l220 -384v-22l-14 -20l-52 -4l-52 6l-52 28z" />
<glyph unicode="&#xad0;" horiz-adv-x="1792" d="M54 290l20 50l42 32l48 -4h46l26 -24l6 -16l20 -32q52 -74 102 -116q80 -62 158 -62q164 0 168 128v50q-8 30 -26 54q-32 42 -84 42h-156l-26 12l-24 32l-4 32l12 48l30 22h168q98 0 102 124l-6 40q-26 76 -170 76q-54 0 -140 -14q-62 -10 -64 -10q-26 8 -18 -6l-36 34 l-2 30v42l30 32q174 32 272 32q336 -6 336 -228q0 -186 -114 -226q58 -38 68 -48q62 -64 62 -164q-6 -130 -108 -202q-100 -70 -272 -70q-190 0 -342 136q-84 80 -110 134q0 8 -14 40zM484 1264l24 50l72 24l72 -12l22 -62q24 -164 230 -164q180 0 216 164l18 50l84 18 l66 -18l30 -50q-14 -76 -62 -136q-106 -136 -352 -136q-240 0 -356 136q-46 54 -64 136zM812 1300q2 80 84 80q34 0 62 -24q26 -24 26 -60q0 -32 -26 -52q-28 -24 -62 -24t-60 24q-24 24 -24 56zM850 458l18 50l34 16q38 -6 66 -6q76 0 100 38l134 242q70 102 194 106 q152 0 234 -124q82 -116 78 -306q-4 -198 -90 -326q-98 -146 -260 -146q-148 0 -244 54l-72 56l-14 60l8 36l36 42l32 6q0 -6 22 -10q16 -18 56 -46q78 -52 144 -50q82 0 142 90q60 86 66 232q4 102 -26 180q-36 92 -102 92q-70 0 -118 -84l-90 -180q-58 -100 -214 -100 q-20 0 -56 4q-24 2 -26 4l-42 32z" />
<glyph unicode="&#xae0;" horiz-adv-x="1766" d="M50 594l12 58q6 34 80 122q100 118 224 118q110 0 198 -108q64 -78 104 -204q32 -100 26 -118l112 58v388l30 38l62 6h64l40 -44v-318l228 100q-12 18 -12 72q0 124 116 124q136 0 142 -124q6 -108 -78 -140l138 -242h-24l-52 -20q-6 -2 -26 -14q-92 -54 -92 -134 q0 -110 108 -102q76 6 158 84l28 12l30 -6l26 -24l12 -28l-4 -38l-26 -38q-24 -16 -74 -42q-92 -46 -176 -46h-82q-62 10 -108 46q-80 62 -80 186q0 88 98 158q74 52 108 52l-76 162l-284 -136v-372h80l16 -14l4 -26l-8 -24l-12 -16h-102h-174v376l-472 -274l-58 -10l-40 10 l-30 24l-24 30l-6 40l24 38l376 172q0 32 -58 172q-70 170 -142 170q-52 0 -106 -66q-36 -44 -74 -130q-14 -28 -20 -46l-30 -10h-36l-48 42z" />
<glyph unicode="&#xae4;" horiz-adv-x="510" d="M138 852l32 38l60 18l66 -16l28 -40v-732h80l22 -18l12 -36l-8 -46l-26 -20h-104h-160v472v142z" />
<glyph unicode="&#xae5;" horiz-adv-x="890" d="M138 614l4 -142v-472h158h104l26 20l8 46l-12 36l-22 18h-80v732l-28 40l-66 16l-60 -18l-32 -38v-238zM502 0h162h104l26 20l8 46l-12 36l-22 18h-80v732l-28 40l-66 16l-60 -18l-32 -38v-238v-142v-472z" />
<glyph unicode="&#xae6;" horiz-adv-x="896" d="M80 450q0 158 114 276q108 112 258 112h12q162 -6 268 -118q108 -112 108 -270t-108 -270q-110 -112 -268 -112q-162 0 -272 112q-112 112 -112 270zM296 450q2 -86 46 -154q48 -70 124 -70q72 0 118 70q40 68 40 154q2 88 -40 162q-42 68 -118 72t-126 -74 q-44 -64 -44 -160z" />
<glyph unicode="&#xae7;" horiz-adv-x="938" d="M82 626q2 132 90 220q84 86 226 86q132 0 220 -62q90 -62 90 -166v-538q0 -64 74 -64q34 0 74 50l16 8h14l26 -28v-48l-2 -32l-12 -28l-18 -24l-26 -12q-96 -24 -154 -22q-196 4 -196 178v250l-42 -28q-52 -22 -122 -24l-58 6q-62 16 -118 68q-84 80 -82 210zM268 638 l4 -48q8 -30 28 -56q32 -48 88 -48l40 4q26 8 48 26q32 28 32 36v158q0 34 -30 56t-74 22q-60 0 -96 -42q-34 -42 -40 -108z" />
<glyph unicode="&#xae8;" horiz-adv-x="902" d="M80 430q4 140 150 140q118 0 212 -156q170 48 170 186q0 88 -84 140q-70 44 -158 44q-98 0 -202 -30l-20 4l-22 20l-8 44l14 44l24 20q138 42 220 42q172 0 298 -84q134 -94 134 -242q-2 -266 -330 -320l28 -74q46 -70 138 -70q70 0 154 34l22 6l24 -8l18 -42l-6 -48 l-28 -42l-26 -18q-114 -34 -198 -34q-180 0 -254 138q-38 70 -38 144q-236 18 -232 162z" />
<glyph unicode="&#xae9;" horiz-adv-x="880" d="M60 164l18 40l38 26l42 8l24 -18q126 -88 236 -88h10q72 0 128 34q70 42 70 122q6 128 -240 138l-108 -6l-32 10l-30 30l-2 32l16 48l22 12q14 6 26 6q10 -2 22 -4q52 -6 80 -6q216 12 218 112l-4 40q-14 38 -60 60q-52 22 -112 22h-36q-46 0 -106 -20q-34 -12 -48 -18 l-26 6l-26 12l-22 20l-6 46l12 38l16 14q160 52 248 52q138 -2 238 -62q106 -66 110 -184l-6 -68q-14 -62 -56 -96q-14 -14 -66 -30q170 -42 170 -226q0 -130 -118 -212q-106 -74 -254 -74q-176 0 -352 110l-32 24z" />
<glyph unicode="&#xaea;" horiz-adv-x="936" d="M16 826l8 72l22 22l24 4q70 -22 198 -74q60 -30 142 -98q72 -60 72 -66l252 226l26 20l50 6l46 -24l34 -42l-6 -66l-18 -24l-264 -218q18 -6 76 -92q72 -108 72 -200q0 -118 -84 -202t-206 -84q-130 0 -220 78q-100 82 -96 208q0 158 214 312q-42 38 -146 104 q-58 30 -136 46l-26 22l-28 38zM330 274q-6 -60 30 -102q36 -38 90 -38q114 0 122 142l-6 44q-12 38 -48 84q-48 62 -60 62q-32 -26 -60 -62q-66 -74 -68 -130z" />
<glyph unicode="&#xaeb;" horiz-adv-x="978" d="M72 842l10 44l20 22h132q42 0 82 -44q38 -42 38 -116v-314q0 -56 42 -86q40 -30 84 -30l58 6q22 6 48 14q52 18 62 36v-152q-20 -18 -70 -36q-68 -28 -136 -26q-92 2 -168 74q-84 76 -84 186v300q4 22 -6 32q-8 10 -28 10h-56l-24 34zM640 0l2 858l20 30l28 22l38 4 l32 -4l34 -24l12 -28v-738h104l20 -20l6 -38l-6 -40l-20 -22h-126h-144z" />
<glyph unicode="&#xaec;" horiz-adv-x="866" d="M80 702q0 126 96 176q86 50 270 50q46 0 142 -20l70 -18l20 -12l20 -16l6 -44l-10 -44l-16 -14l-22 -4q-50 12 -178 28l-70 -4q-104 -16 -104 -112q0 -140 272 -140q44 0 64 2q12 0 26 -2l22 -20l8 -54l-8 -52l-26 -30l-22 -4l-176 20h-60q-70 -10 -86 -86q-2 -10 -2 -18 l6 -30q6 -18 70 -60q6 -4 150 -46q280 -84 280 -218q0 -164 -184 -216q-66 -18 -166 -20l-24 4l-28 20l-12 36l4 48l8 18l24 4q46 2 88 12q102 24 98 86q0 66 -80 94l-158 42q-146 44 -202 78q-96 58 -94 150q2 110 84 170q46 38 94 44q-54 22 -96 52q-98 72 -98 150z" />
<glyph unicode="&#xaed;" horiz-adv-x="978" d="M82 316q-2 156 32 226l20 20l32 10l40 -16l38 -32l14 -42l-6 -36q-14 -50 -14 -130q0 -78 68 -122q54 -34 122 -34h8q110 0 180 48q52 36 72 92q18 38 12 48q-378 0 -390 306l4 74q14 84 72 134q82 70 228 64q138 -6 220 -102q72 -90 72 -224q-6 -260 -68 -390 q-102 -214 -362 -210q-190 4 -290 86q-102 86 -104 230zM486 604q2 -100 120 -150q70 -32 118 -32q16 30 18 204q0 140 -134 142q-60 2 -90 -34q-32 -38 -32 -106v-24z" />
<glyph unicode="&#xaee;" horiz-adv-x="848" d="M82 308q0 152 114 242l468 368l36 12h44l40 -26l20 -40l4 -48l-18 -34l-476 -372q-48 -38 -48 -120q0 -72 66 -114q52 -32 120 -32q100 0 204 128l28 6l40 -8l60 -28l22 -42l4 -54l-20 -32l-10 -10q-34 -30 -80 -54q-108 -64 -238 -64q-162 0 -270 88q-110 90 -110 234z " />
<glyph unicode="&#xaef;" horiz-adv-x="954" d="M80 450q0 188 142 320q144 132 338 132q58 0 140 -26l28 -28l8 -40l-2 -54l-24 -18l-22 -4q-62 18 -114 18q-116 0 -204 -86q-88 -82 -94 -202l6 -72q16 -86 80 -154q88 -94 218 -94q56 0 118 32l40 -4l16 -16l18 -48l-16 -38l-30 -30l-26 -24q-80 -28 -162 -28 q-188 0 -324 136q-134 136 -134 328zM410 460l16 44l26 20h394l20 -4l20 -22l14 -38l-14 -46l-20 -18l-22 -10h-392l-34 30z" />
<glyph unicode="&#xaf0;" horiz-adv-x="924" d="M80 450q0 158 114 276q108 112 258 112h12q162 -6 268 -118q108 -112 108 -270t-108 -270q-110 -112 -268 -112q-162 0 -272 112q-112 112 -112 270zM296 450q2 -86 46 -154q48 -70 124 -70q72 0 118 70q40 68 40 154q2 88 -40 162q-42 68 -118 72t-126 -74 q-44 -64 -44 -160z" />
<glyph unicode="&#xaf1;" horiz-adv-x="1414" d="M166 946l10 30l10 12l96 40q126 44 198 44q122 0 206 -60q90 -72 90 -188q0 -86 -40 -144q-20 -34 -72 -62q82 -32 132 -100q52 -72 54 -156q0 -118 -72 -198q-74 -80 -190 -102l140 -204l2 -34l-22 -32l-28 -24l-34 4l-22 12l-188 270q-200 24 -200 134l4 48 q16 60 90 60l44 -6q26 -8 60 -28q56 -36 88 -92q74 0 136 58q62 56 62 130q2 80 -94 144q-84 54 -172 54h-98h-14l-50 6l-28 26l-14 48l14 34l18 14h168q198 0 198 136q0 124 -182 124q-62 0 -140 -24q-52 -18 -68 -38q-10 -4 -18 -8l-28 8l-32 24zM986 192q0 102 82 154 q46 32 106 32q94 0 152 -78q32 -52 32 -106q0 -94 -82 -154q-52 -32 -104 -32q-100 0 -154 80q-32 46 -32 104zM1050 190q0 -38 24 -70q36 -48 98 -48q40 0 74 24q46 36 46 96q0 40 -24 74q-36 50 -96 50q-44 0 -72 -26q-50 -40 -50 -100z" />
<glyph unicode="&#x2000;" horiz-adv-x="736" />
<glyph unicode="&#x2001;" horiz-adv-x="1472" />
<glyph unicode="&#x2002;" horiz-adv-x="736" />
<glyph unicode="&#x2003;" horiz-adv-x="1472" />
<glyph unicode="&#x2004;" horiz-adv-x="490" />
<glyph unicode="&#x2005;" horiz-adv-x="368" />
<glyph unicode="&#x2006;" horiz-adv-x="245" />
<glyph unicode="&#x2007;" horiz-adv-x="245" />
<glyph unicode="&#x2008;" horiz-adv-x="184" />
<glyph unicode="&#x2009;" horiz-adv-x="294" />
<glyph unicode="&#x200a;" horiz-adv-x="81" />
<glyph unicode="&#x202f;" horiz-adv-x="294" />
<glyph unicode="&#x205f;" horiz-adv-x="368" />
<glyph unicode="&#xe000;" horiz-adv-x="900" d="M0 0v900h900v-900h-900z" />
</font>
</defs>
</svg>
