<?xml version="1.0" standalone="no"?>
<!DOCTYPE svg PUBLIC "-//W3C//DTD SVG 1.1//EN" "http://www.w3.org/Graphics/SVG/1.1/DTD/svg11.dtd" >
<svg xmlns="http://www.w3.org/2000/svg">
<metadata></metadata>
<defs>
<font id="rekhamedium" horiz-adv-x="1520" >
<font-face units-per-em="2048" ascent="1638" descent="-410" />
<missing-glyph horiz-adv-x="1018" />
<glyph horiz-adv-x="0" />
<glyph horiz-adv-x="0" />
<glyph unicode="&#xd;" horiz-adv-x="682" />
<glyph unicode=" "  horiz-adv-x="1018" />
<glyph unicode="&#x09;" horiz-adv-x="1018" />
<glyph unicode="&#xa0;" horiz-adv-x="1018" />
<glyph unicode="&#xa81;" horiz-adv-x="276" d="M-940 1784q12 84 104 84q20 0 44 -4q76 -8 84 -10q40 -16 44 -70q36 -232 336 -232q264 0 316 232q0 58 44 74q28 10 76 14l108 -16q48 -12 56 -54q4 -8 4 -18q-20 -108 -92 -192q-152 -194 -512 -194q-356 0 -520 194q-64 76 -92 192zM-500 1862q0 78 48 126 q48 50 120 50t120 -50q52 -56 52 -126q0 -64 -52 -120q-52 -54 -120 -54q-64 0 -120 52q-48 50 -48 122z" />
<glyph unicode="&#xa82;" horiz-adv-x="0" d="M-532 1644q0 78 48 126q48 50 122 50q72 0 120 -50q50 -56 50 -126q0 -64 -50 -120q-52 -54 -120 -54q-64 0 -120 52q-50 50 -50 122z" />
<glyph unicode="&#xa83;" horiz-adv-x="666" d="M228 338q0 78 48 126q48 50 124 50q72 0 120 -50q48 -56 48 -126q0 -64 -48 -120q-52 -54 -120 -54q-64 0 -120 52q-52 50 -52 122zM228 1080q0 78 48 126q48 50 124 50q72 0 120 -50q48 -56 48 -126q0 -64 -48 -120q-52 -54 -120 -54q-64 0 -120 52q-52 50 -52 122z M272 338q0 52 40 90q36 36 90 36t90 -36q36 -38 36 -90q0 -50 -40 -86q-36 -38 -84 -38q-56 0 -94 36t-38 88zM272 1076q0 54 40 90q36 36 88 36t88 -36q32 -34 36 -90q0 -54 -36 -88q-32 -34 -84 -34q-56 0 -92 34q-40 36 -40 88z" />
<glyph unicode="&#xa84;" />
<glyph unicode="&#xa85;" horiz-adv-x="1988" d="M88 646v72q8 4 40 36q8 8 12 14l280 2q52 0 84 50q36 46 36 132q0 166 -132 166h-204l-82 -210l-4 614l86 -200h312q104 0 166 -108t62 -274q0 -248 -156 -340q-80 -46 -144 -46h-24l12 -76q24 -84 72 -138q68 -74 184 -74q226 0 306 90q76 92 76 222l-4 566l16 44l84 44 l76 -54l36 -70l-4 -216h220v326l-220 116h648l-216 -114v-1114l216 -108h-644l220 110v578h-224v-170q0 -204 -144 -336q-136 -110 -442 -110q-432 0 -480 484l-52 -12q-4 16 -20 20q-12 4 -16 12z" />
<glyph unicode="&#xa86;" horiz-adv-x="2566" d="M92 644v72q4 10 40 36q12 8 12 14l280 2q56 0 88 50q36 46 36 132q0 166 -136 166h-204l-80 -210v614l80 -200h312q108 0 170 -108t62 -274q0 -248 -156 -340q-80 -46 -148 -46h-20l8 -76q24 -84 72 -138q72 -74 188 -74q96 0 172 90q76 92 76 222v566l12 44l84 44 l80 -54l32 -70v-216h216v326l-220 118h648l-216 -116v-1114l220 -108h-648l220 110v578h-224v-170q0 -204 -140 -336q-136 -110 -312 -110q-436 0 -480 484l-56 -12q-4 12 -20 20q-8 4 -16 12zM1824 1334l220 -118v-326v-206v-578l-216 -110h644l-216 108v1114l216 116h-648 z" />
<glyph unicode="&#xa87;" horiz-adv-x="1084" d="M-2 1018q0 138 84 238q72 88 120 88h320l48 -60l12 -60l-20 -66l-44 -26h-172q-108 0 -116 -140l8 -74q20 -98 116 -98h168l48 -48l28 -54l-24 -82l-52 -40h-152q-48 0 -96 -62q-44 -56 -44 -140q8 -96 76 -148q60 -42 152 -48l56 2q56 10 100 52q72 56 72 136v678 q0 164 60 226q52 58 124 58h124l92 208v-638l-84 208h-16q-28 0 -52 -28t-24 -66v-660q0 -164 -152 -292l-8 -6q-104 -90 -328 -90q-276 40 -368 268q-28 70 -44 162q0 184 120 294q-132 82 -132 308z" />
<glyph unicode="&#xa88;" horiz-adv-x="1332" d="M-6 418q0 132 70 210l72 68q-138 96 -138 302q0 134 102 234q86 84 144 84h382l42 -46l16 -70l-28 -64l-32 -26h-206q-62 0 -102 -50q-42 -52 -42 -120q2 -158 148 -158h202l48 -26l12 -58l-16 -64l-44 -26l-180 -4q-178 -2 -184 -154v-20q8 -132 122 -196 q76 -46 164 -46h20q108 0 192 82q74 70 74 140v1034q0 148 62 216q60 70 140 70h168l136 232v-640l-136 228h-30q-92 0 -92 -124l-2 -1060q0 -178 -146 -278q-146 -102 -358 -102q-578 0 -580 432z" />
<glyph unicode="&#xa89;" horiz-adv-x="1164" d="M102 434v796q0 248 144 416q96 112 278 128q42 4 102 4h74l76 2l66 -8q64 84 96 178l4 12l-2 -626q-98 220 -108 222l-60 2l-68 -2q-8 2 -18 2l-70 -6q-146 -22 -206 -90q-60 -70 -80 -204l-2 -844q0 -76 66 -144q78 -78 196 -78q250 2 254 192q0 86 -40 140 q-44 54 -94 54h-176q-62 26 -62 82q0 12 2 24l-2 44q6 50 60 54h178q56 0 98 52q38 48 38 124q0 64 -40 104q-38 36 -96 36h-194l-44 22q-16 12 -18 36q0 8 2 18l2 40q14 60 58 84h316q100 0 166 -94q56 -78 62 -252q2 -14 2 -26q-6 -168 -76 -222q-20 -16 -54 -30 q70 -40 80 -52q44 -48 44 -256v-38q0 -112 -46 -166q-22 -28 -72 -70q-118 -100 -342 -100l-110 8q-142 26 -250 130q-134 132 -134 302z" />
<glyph unicode="&#xa8a;" horiz-adv-x="1722" d="M48 436v810q0 278 212 440q188 146 472 146q296 0 524 -168q236 -172 236 -418v-1122l180 -106l-592 2l184 104v1122q0 128 -156 254q-168 132 -372 132t-324 -98q-136 -96 -136 -288l-4 -820q0 -84 76 -154q84 -90 212 -90q100 0 176 50q88 54 88 156q0 192 -144 192 h-180l-28 34l-8 64l4 56l32 48h180q148 0 148 184q-4 148 -148 148h-204l-32 44l-8 62l4 46l36 52h332q104 0 172 -94q64 -98 64 -224q0 -168 -84 -260q-56 -58 -88 -58q196 -54 196 -302q0 -188 -156 -292q-136 -98 -352 -98q-200 0 -348 112q-164 124 -164 334z" />
<glyph unicode="&#xa8b;" horiz-adv-x="2082" d="M104 936l8 64q0 52 92 186q116 178 260 178q128 0 232 -164q68 -112 120 -308q32 -128 32 -168q0 -8 -4 -12l128 88l4 434l-232 152h684l-224 -152v-328l264 152q-16 28 -16 108q0 188 136 188q156 0 164 -188l-4 -78l-16 -56q-24 -54 -72 -78q68 -66 212 -262 q108 -168 108 -340q0 -242 -204 -340q-68 -30 -136 -30q-176 0 -272 218v76l28 54l84 -2q68 -130 148 -130q28 0 56 18q112 70 112 184q0 110 -96 224q-120 140 -172 280l-328 -206v-534l232 -152h-692l232 152v418l-548 -414l-76 -10l-64 36l-28 92l12 82l436 260 q0 48 -64 260q-84 254 -164 258q-64 0 -124 -100q-44 -66 -88 -198q-12 -36 -36 -48l-8 -6l-48 -18l-48 64z" />
<glyph unicode="&#xa8c;" />
<glyph unicode="&#xa8d;" horiz-adv-x="1996" d="M88 640v72q8 4 40 36q8 8 12 14l280 2q52 0 84 50q36 46 36 132q0 166 -132 166h-204l-82 -210l-4 614l86 -200h312q104 0 166 -108t62 -274q0 -248 -156 -340q-80 -46 -144 -46h-24l12 -76q24 -84 72 -138q68 -74 184 -74q226 0 306 90q76 92 76 222l-4 566l16 44l84 44 l76 -54l36 -70l-4 -216h220v326l-220 122h648l-216 -120v-1114l216 -108h-644l220 110v578h-224v-170q0 -204 -144 -336q-136 -110 -442 -110q-432 0 -480 484l-52 -12q-4 16 -20 20q-12 4 -16 12zM1048 1864q0 14 16 44l76 28l92 -14l60 -88q112 -334 400 -334q96 0 180 30 l56 -38l-20 -84l-36 -12q-90 -30 -248 -30q-296 0 -456 234q-68 92 -108 234q-12 14 -12 30z" />
<glyph unicode="&#xa8e;" />
<glyph unicode="&#xa8f;" horiz-adv-x="1972" d="M88 646v72q8 4 40 36q8 8 12 14l280 2q52 0 84 50q36 46 36 132q0 166 -132 166h-204l-82 -210l-4 614l86 -200h312q104 0 166 -108t62 -274q0 -248 -156 -340q-80 -46 -144 -46h-24l12 -76q24 -84 72 -138q68 -74 184 -74q226 0 306 90q76 92 76 222l-4 566l16 44l84 44 l76 -54l36 -70l-4 -216h220v326l-220 116h648l-216 -114v-1114l216 -108h-644l220 110v578h-224v-170q0 -204 -144 -336q-136 -110 -442 -110q-432 0 -480 484l-52 -12q-4 16 -20 20q-12 4 -16 12zM760 1856q0 24 60 42q36 14 88 14q112 0 180 -50l76 -46l572 -444h-252 l-712 444z" />
<glyph unicode="&#xa90;" horiz-adv-x="1978" d="M88 646v72q8 4 40 36q8 8 12 14l280 2q52 0 84 50q36 46 36 132q0 166 -132 166h-204l-82 -210l-4 614l86 -200h312q104 0 166 -108t62 -274q0 -248 -156 -340q-80 -46 -144 -46h-24l12 -76q24 -84 72 -138q68 -74 184 -74q226 0 306 90q76 92 76 222l-4 566l16 44l84 44 l76 -54l36 -70l-4 -216h220v326l-220 110h648l-216 -108v-1114l216 -108h-644l220 110v578h-224v-170q0 -204 -144 -336q-136 -110 -442 -110q-432 0 -480 484l-52 -12q-4 16 -20 20q-12 4 -16 12zM782 1690v36v54q4 8 8 14q24 64 60 66l20 -2l136 -56l480 -296l-256 264 l-40 96l24 88q24 12 60 12q64 0 100 -28l64 -88l312 -464l-304 4l-560 180q-60 14 -96 82q-8 20 -8 38z" />
<glyph unicode="&#xa91;" horiz-adv-x="2598" d="M110 636v72q4 10 40 36q12 8 12 14l280 2q56 0 88 50q36 46 36 132q0 166 -136 166h-204l-80 -210l-4 614l84 -200h312q108 0 170 -108t62 -274q0 -248 -156 -340q-80 -46 -148 -46h-20l8 -76q24 -84 72 -138q72 -74 188 -74q96 0 172 90q76 92 76 222v566l12 44l84 44 l80 -54l32 -70v-216h216v326l-220 110h648l-216 -108v-1114l220 -108h-648l220 110v578h-224v-170q0 -204 -140 -336q-136 -110 -312 -110q-436 0 -480 484l-56 -12q-4 12 -20 20q-8 4 -16 12zM1490 1860q0 14 16 44l76 28l92 -14l60 -88q112 -334 400 -334q96 0 180 30 l56 -38l-20 -84l-36 -12q-88 -30 -248 -30q-296 0 -456 234q-68 92 -108 234q-12 14 -12 30zM1834 1318l224 -110v-326l-4 -206l4 -578l-220 -110h648l-220 108v1114l216 108h-648z" />
<glyph unicode="&#xa92;" />
<glyph unicode="&#xa93;" horiz-adv-x="2606" d="M124 632v72q8 4 40 36q8 8 12 14l280 2q52 0 84 50q36 46 36 132q0 166 -132 166h-204l-80 -210l-4 614l84 -200h312q104 0 166 -108t62 -274q0 -248 -156 -340q-80 -46 -144 -46h-24l12 -76q24 -84 72 -138q68 -74 184 -74q96 0 176 90q76 92 76 222l-4 566l16 44l84 44 l76 -54l36 -70l-4 -216h220v326l-220 130h648l-216 -128v-1114l216 -108h-644l220 110v578h-224v-170q0 -204 -144 -336q-136 -110 -312 -110q-432 0 -480 484l-52 -12q-4 16 -20 20q-12 4 -16 12zM1344 1842q0 24 56 42q36 14 92 14q112 0 176 -50l80 -46l568 -444h-252 l-708 444zM1836 1334l220 -130v-326v-206v-578l-216 -110h644l-216 108v1114l216 128h-648z" />
<glyph unicode="&#xa94;" horiz-adv-x="2598" d="M124 654v72q4 10 40 36q8 8 12 14l280 2q52 0 84 50q36 46 36 132q0 166 -132 166h-204l-80 -210l-4 614l84 -200h312q104 0 166 -108t62 -274q0 -248 -156 -340q-80 -46 -144 -46h-24l12 -76q24 -84 72 -138q68 -74 184 -74q96 0 176 90q76 92 76 222l-4 566l16 44 l84 44l76 -54l36 -70l-4 -216h220v326l-220 110h648l-216 -108v-1114l216 -108h-644l220 110v578h-224v-170q0 -204 -144 -336q-136 -110 -312 -110q-432 0 -480 484l-52 -12q-4 12 -20 20q-12 4 -16 12zM1332 1702v36v54q4 8 8 14q24 64 60 66l20 -2l136 -56l480 -296 l-256 264l-40 96l24 88q24 12 60 12q64 0 100 -28l64 -88l312 -464l-304 4l-560 180q-60 14 -96 82q-8 20 -8 38zM1824 1336l224 -110v-326v-206v-578l-216 -110h644l-216 108v1114l216 108h-652z" />
<glyph unicode="&#xa95;" horiz-adv-x="1254" d="M8 144l392 370l-16 -48q-44 -102 -44 -130q0 -12 8 -18q20 -18 44 -40q112 -88 212 -88q96 0 172 48q88 54 88 152q0 106 -104 202q-84 72 -112 72l-424 -100l-72 28q-40 28 -40 64q0 8 4 16l4 34q8 28 40 52l320 46q-36 0 -132 74q-116 88 -116 192q0 142 120 210 q100 58 248 58q84 0 212 -26l24 4q8 -4 24 -18l16 6q20 12 96 108q20 28 28 28l-100 -494l-36 140q-16 34 -44 40q-56 18 -128 18q-208 0 -212 -114l8 -54q12 -48 68 -90q52 -40 88 -40l456 94l48 -2q24 -8 28 -44q8 -10 8 -28l-8 -56q-4 -14 -12 -30l-32 -40l-304 -42 q272 -136 272 -352q0 -350 -496 -350q-164 0 -344 108l-84 74z" />
<glyph unicode="&#xa96;" horiz-adv-x="2056" d="M104 908v610l60 -144l28 -48l12 -8h212q56 0 124 -66q44 -56 46 -164l4 -394q2 -154 176 -154q186 0 186 148v500q-18 42 18 70q42 36 132 24l60 -18l20 -76v-270h312v-212h-306l-20 -110q-16 -90 -66 -132q-78 -84 -174 -98q-102 -14 -122 -14q-194 0 -320 114 q-102 94 -102 232v332l-12 62q-14 18 -64 18h-104zM1292 1352h612l-204 -118v-1140l250 -98h-656l200 98l-2 1138z" />
<glyph unicode="&#xa97;" horiz-adv-x="1660" d="M112 584q20 62 62 64h12q24 12 42 12q34 0 64 -48l-2 -14q4 -28 52 -92q78 -104 172 -104q102 0 170 80q66 76 70 234l-2 76q-12 80 -60 144q-68 88 -192 88q-80 0 -150 -20q-58 -16 -64 -22q-48 32 -56 56l-4 36q0 10 2 20l-2 38q6 44 60 64q96 28 222 28 q242 0 360 -140q82 -96 102 -156q14 -46 14 -106l-6 -140q-26 -246 -174 -382q-116 -104 -288 -104q-174 0 -302 140q-40 46 -98 236q0 6 -4 12zM930 -8l202 102v1128l-202 100l616 -2l-202 -98v-1128l204 -102h-618z" />
<glyph unicode="&#xa98;" horiz-adv-x="1402" d="M76 500q0 160 162 262q-38 14 -86 68q-78 86 -76 190q4 160 124 236q96 72 252 72q194 0 278 -34l36 -52l4 -30q0 -6 -2 -12v-30q-4 -18 -48 -58q-10 -10 -16 -18q-62 26 -130 26h-28q-246 -6 -246 -134q0 -156 140 -156h240q0 -2 34 -16q40 -14 42 -78l4 -30 q-4 -20 -20 -40l-30 -22q-14 -6 -28 -10h-238q-138 0 -142 -152q0 -148 252 -164l72 2q96 16 198 82q110 78 132 118l-2 -256q-34 -34 -140 -94q-140 -72 -258 -72q-190 0 -324 94q-156 108 -156 308zM790 1294h536l-158 -102v-1080l160 -110h-532l158 110l-4 1078z" />
<glyph unicode="&#xa99;" horiz-adv-x="1414" d="M76 146l420 430l-12 -42q-52 -124 -52 -154l4 -22v-2l36 -42q108 -112 210 -112t174 62q64 60 64 148l-4 54q-28 102 -168 152q-180 64 -272 136q-108 94 -108 224l8 90q40 256 368 262q56 0 104 -10l16 6q44 28 76 128q8 20 12 36q-8 -86 -8 -328l4 -240q-24 92 -72 164 q-16 26 -28 30q-52 14 -108 14q-176 0 -176 -142q0 -60 88 -104q48 -26 168 -64q140 -54 220 -150q80 -94 80 -224q0 -226 -132 -344q-112 -104 -296 -104t-336 132q-48 40 -80 78q-8 10 -20 10t-108 -42q-36 -16 -72 -30zM1056 892q0 24 4 44q12 32 36 56q40 40 96 42 l44 -8q36 -10 60 -34q44 -42 44 -104q0 -24 -8 -44q-8 -32 -32 -56q-40 -40 -100 -42l-44 8q-32 10 -56 34q-44 42 -44 104zM1096 788v200h200v-200h-200z" />
<glyph unicode="&#xa9a;" horiz-adv-x="1558" d="M84 694l4 46q12 28 36 54h356q64 0 104 44q44 40 48 122l-4 60q-16 58 -60 78l-60 18h-28h-184l-104 -200v612l104 -200h284q116 0 196 -106q76 -98 76 -244v-18q0 -222 -140 -320q-88 -62 -212 -62q-36 0 -44 4q32 -258 244 -258h16q96 0 224 102q112 88 116 120l4 -264 q-32 -38 -140 -102q-140 -80 -256 -80q-248 0 -360 232q-36 68 -72 250h-112q-4 6 -20 20t-16 92zM856 -6l196 100l4 1134l-200 100h620l-200 -100v-1134l200 -100h-620z" />
<glyph unicode="&#xa9b;" horiz-adv-x="1434" d="M80 1032q0 130 76 226q68 88 152 88l288 2q72 -36 72 -82l-4 -20v-62q-4 -42 -40 -46l-8 -2h-176q-124 0 -124 -134q0 -70 36 -114q40 -46 88 -46h152q48 -38 48 -78l-4 -28l-8 -72q-12 -26 -40 -44h-80q-56 0 -100 -56q-44 -60 -44 -112q8 -228 336 -234q284 0 416 316 q-52 -6 -80 -6q-328 0 -332 372q0 182 80 316q88 142 228 146q160 0 248 -148q92 -158 92 -454v-30q0 -284 -172 -500q-188 -234 -476 -234q-252 0 -400 88q-188 112 -188 348v20q8 166 184 278q-48 0 -112 54q-108 88 -108 248zM888 922l4 -54q8 -42 36 -88q36 -70 100 -70 q56 0 88 56q36 58 36 150q0 98 -36 164t-92 66q-128 0 -136 -224z" />
<glyph unicode="&#xa9c;" horiz-adv-x="1392" d="M88 892q0 194 84 308q76 118 208 118t260 -130q92 -90 172 -242q64 -110 64 -132l252 396l-60 278l388 -614l-200 138l-284 -378q12 -14 48 -116q36 -114 36 -192v-18q0 -154 -56 -242q-52 -78 -246 -78q-56 26 -76 76q-26 70 -26 250q0 88 52 232q36 100 52 114l-8 32 q-28 56 -116 196q-144 224 -232 224q-60 0 -96 -68q-32 -72 -32 -154q0 -114 56 -170q40 -40 84 -40q40 0 84 34q36 26 36 34q52 -8 52 -68v-20q-4 -88 -44 -118l-8 -6l-44 -34q-40 -30 -96 -30q-108 0 -192 98q-112 118 -112 322zM816 234q4 -60 40 -62l20 4q32 22 36 162 v10l-8 52l-32 90l-48 -108q-8 -22 -8 -46v-102z" />
<glyph unicode="&#xa9d;" horiz-adv-x="1732" d="M100 582q42 -130 74 -194q16 -32 24 -32q44 -38 80 -38q148 0 220 164q52 116 56 230l-4 154q-4 102 -32 186q-64 178 -196 178q-40 0 -68 -14q-36 0 -96 -202v586l4 -4l68 -176q12 -24 20 -24q84 24 132 24q316 -8 376 -330q36 32 176 96q40 8 80 8q56 0 112 -20 q34 34 44 102q4 28 8 60l-8 8l-176 50q-12 6 -12 10h652q-8 -10 -140 -50l-72 -26l-8 -8q-20 -78 -32 -104l-4 -8q-14 -26 -72 -78q-52 -36 -56 -36q48 -40 76 -94q76 -122 80 -290q0 -242 -80 -390q-76 -154 -152 -194q-36 -18 -80 -22q-24 -12 -60 -12q-52 2 -92 24 q-60 14 -96 48q-40 34 -40 84v30v34q4 30 52 54q12 6 16 10q52 -58 104 -58q72 2 128 104q48 98 48 270q0 122 -56 214q-52 86 -148 86q-60 0 -112 -66q-40 -54 -48 -80v-130q0 -226 -128 -404q-132 -184 -320 -184q-40 0 -54 2q-20 2 -58 28q-12 8 -28 14l-8 -6 q-4 -8 -60 -152l-24 -52l-8 -2l2 2z" />
<glyph unicode="&#xa9e;" horiz-adv-x="2108" d="M102 302l504 474l-80 -190q-16 -44 -16 -66q0 -14 6 -20q36 -42 52 -42l26 -22q92 -70 164 -70q288 0 304 372l-8 94q-20 98 -88 170q-90 94 -208 94q-48 0 -158 -34q0 -8 -96 -208v660l2 -2l64 -182q14 -32 26 -36q78 34 176 34q288 -10 434 -232q66 -100 94 -238h234 l2 -232h-236l-14 -84q-6 -26 -16 -58q-56 -158 -152 -248q-128 -132 -334 -132q-100 0 -238 86l-98 70q-40 32 -48 50q-16 12 -46 34q-10 8 -30 8q-40 0 -144 -30l-76 -20h-2zM1332 -2l200 98l2 1084l-202 122h646l-186 -118l-2 -1094l216 -92h-674z" />
<glyph unicode="&#xa9f;" horiz-adv-x="1368" d="M84 460q0 224 372 344q260 80 260 180q0 86 -68 112q-88 28 -152 28t-152 -32q-16 -6 -56 -156l-20 -52v580l8 -8l40 -144l12 -16h4q92 24 156 24q20 0 40 -2q196 -30 296 -96q124 -84 124 -250q0 -130 -100 -208q-80 -60 -296 -128q-216 -70 -224 -238q0 -206 272 -206 q152 0 240 78l16 16l56 54l4 18q-4 20 -72 134q-16 34 -16 44l456 -380l-20 2l-156 62l-36 6q-8 -2 -12 -6q-32 -42 -44 -54q-32 -30 -68 -56q-152 -108 -364 -108t-344 106q-156 118 -156 352z" />
<glyph unicode="&#xaa0;" horiz-adv-x="1080" d="M46 436q0 184 134 292q78 60 148 72q-96 62 -108 166v22q0 162 124 254q108 80 280 84q80 0 142 -12l10 6q6 8 38 126q12 46 22 48v-580l-54 174q-12 26 -24 30q-60 18 -138 18q-170 0 -178 -156l4 -28q34 -64 88 -84q38 -14 182 -44q156 -32 240 -138q78 -96 78 -234 q0 -226 -146 -348q-124 -104 -322 -104q-240 0 -382 108q-138 108 -138 328zM268 482q0 -134 90 -212q82 -74 204 -74q80 0 158 72q78 68 78 174q0 142 -168 200q-86 42 -174 70q-28 0 -94 -56q-90 -72 -94 -174z" />
<glyph unicode="&#xaa1;" horiz-adv-x="1170" d="M60 142l420 430l-12 -42q-48 -124 -48 -154l4 -22v-2l36 -42q104 -112 206 -112t174 62q68 60 68 148l-8 54q-24 102 -164 152q-184 64 -276 136q-104 94 -104 224l4 90q44 256 372 262q52 0 100 -10l20 6q40 28 76 128q8 20 8 36q-4 -86 -4 -328v-240q-24 92 -68 164 q-20 26 -32 30q-48 14 -104 14q-176 0 -176 -142q0 -60 88 -104q48 -26 168 -64q140 -54 216 -150q84 -94 84 -224q0 -226 -132 -344q-116 -104 -300 -104t-336 132q-48 40 -80 78q-8 10 -20 10q-8 0 -108 -42q-36 -16 -72 -30z" />
<glyph unicode="&#xaa2;" horiz-adv-x="1250" d="M72 464l8 66q44 198 388 296q292 80 292 180q0 120 -244 120q-72 0 -156 -28q-36 -12 -92 -160q-4 16 -4 478q-4 54 -4 82q44 -136 48 -142q16 -40 36 -40q56 16 120 16q28 0 68 -2q236 -18 340 -80q152 -90 152 -264q0 -140 -112 -218q-96 -68 -328 -118 q-236 -50 -236 -208q0 -160 136 -216q56 -28 112 -28q12 0 24 4q0 42 8 84q16 94 68 148q64 84 200 84t208 -56q72 -54 72 -174q-8 -178 -140 -242q-4 -4 -12 -8q-84 -38 -240 -38q-24 0 -144 4q-560 6 -568 460zM788 196q72 -20 104 -20q52 0 88 36q28 28 28 64 q0 26 -16 48q-20 24 -48 24q-20 0 -44 -6q-20 -6 -52 -46q-12 -14 -52 -88z" />
<glyph unicode="&#xaa3;" horiz-adv-x="1972" d="M116 552l4 740q42 68 80 78l36 2q10 0 18 -4h56q58 -8 92 -76l-4 -744q0 -152 96 -254q98 -100 244 -100q114 0 240 38q82 24 122 46q90 -22 114 -80l6 -50q-4 -48 -48 -84q-44 -20 -170 -38q-152 -22 -254 -22h-22q-278 8 -454 178q-156 156 -156 370zM524 622l2 46 q10 38 74 38q94 -46 150 -46q188 8 198 238q0 110 -66 174q-58 52 -132 52q-18 0 -38 -2q-20 0 -112 -52q-64 18 -64 84v16l2 42q12 50 48 52l16 -2q90 44 202 44q172 -6 286 -122q116 -112 116 -296q-6 -198 -116 -308q-108 -112 -312 -112q-86 0 -178 52q-48 4 -66 72z M1206 1334l222 -110v-326l-2 -206l2 -578l-218 -110h646l-218 108v1114l216 108h-648z" />
<glyph unicode="&#xaa4;" horiz-adv-x="1624" d="M158 606q-4 182 124 308q202 148 294 148h536v-192h-440q-116 0 -216 -106q-102 -98 -92 -204q14 -158 32 -172q40 -52 88 -100q22 -48 256 -100q12 -26 26 -52l-4 -66l10 34q-4 -52 -76 -58l-54 -4q-72 0 -126 22q-140 56 -216 124q-136 148 -142 418zM910 -2l200 94 l2 1142l-196 108h598l-200 -108v-1142l194 -94h-598z" />
<glyph unicode="&#xaa5;" horiz-adv-x="1584" d="M110 620q0 64 48 82q12 4 32 8q30 6 154 6l118 10q192 36 192 208q0 84 -42 144q-46 62 -104 62q-108 0 -108 -130q0 -62 94 -138l-16 -58l-12 -16l-22 -6q-10 0 -20 4l-54 -2q-54 6 -98 64q-78 58 -78 194q0 124 100 208q88 72 212 72q160 0 256 -100t96 -278 q0 -176 -96 -276q-88 -94 -230 -106l-110 4h-2q-72 -6 -72 -52q0 -64 72 -132q80 -68 178 -68l72 4q104 16 226 98q132 84 150 130v-238q-54 -46 -146 -94q-148 -72 -286 -72q-198 10 -336 104q-150 110 -166 324q-2 20 -2 40zM848 -6l198 100l2 1080l-200 100h626l-200 -98 v-1082l200 -100h-626z" />
<glyph unicode="&#xaa6;" horiz-adv-x="1322" d="M80 456q0 180 168 294q-24 0 -84 56q-84 80 -84 196q0 166 148 260q132 88 292 88q84 0 216 -28l16 6q32 30 84 202v-620q-64 200 -88 206q-72 18 -132 18q-284 0 -284 -166q0 -60 50 -94t110 -34h300l36 -30l8 -26v-32v-48q-8 -34 -44 -58h-288q-64 0 -120 -52 q-48 -58 -52 -130l8 -68q12 -66 64 -114q80 -72 176 -72l64 4q104 20 200 120q8 6 8 24q0 56 -56 198l444 -480l-204 60l-48 4q-8 -2 -12 -6q-168 -138 -384 -138q-212 0 -352 118q-160 130 -160 342z" />
<glyph unicode="&#xaa7;" horiz-adv-x="1522" d="M88 1042q0 176 252 250q68 20 68 92q0 6 12 22v14q48 22 68 22q12 0 32 -6q28 -10 48 -48l16 -22q12 -46 12 -76q0 -118 -132 -172q-84 -38 -100 -54q-32 -30 -32 -74q0 -52 56 -100q56 -50 100 -50h252q44 -26 48 -78q4 -8 4 -12l-4 -48l-12 -28q-12 -16 -32 -24h-252 q-152 0 -156 -176q0 -76 84 -122q68 -40 168 -40q116 0 276 104q132 82 152 126v-268l-152 -78q-176 -78 -296 -84l-116 8q-112 18 -204 78q-148 102 -148 278q0 152 196 250q-52 34 -92 74q-92 86 -112 174q-4 38 -4 68zM812 0l200 96l4 1038l-200 102h620l-196 -102v-1040 l196 -94h-624z" />
<glyph unicode="&#xaa8;" horiz-adv-x="1664" d="M102 658q0 174 106 280q100 96 244 96h676l2 -206h-328l36 -56q28 -68 28 -178q0 -128 -98 -218t-260 -90q-184 0 -298 102q-108 102 -108 270zM342 652q6 -166 168 -168l48 4q38 8 70 40q54 44 54 110q0 140 -78 190q-20 10 -66 10q-192 0 -196 -186zM926 -6l202 100 l2 1124l-200 98h632l-198 -98v-1124l196 -100h-634z" />
<glyph unicode="&#xaa9;" />
<glyph unicode="&#xaaa;" d="M84 930v616l100 -202l152 -18q72 -8 128 -64q56 -62 56 -170v-460q0 -58 64 -126q42 -44 132 -26l88 10l82 20q76 18 96 54v-226q-42 0 -108 -24q-86 -30 -202 -34h-16q-188 38 -260 92q-114 82 -114 272v426q8 34 -8 46q-12 16 -44 16h-46zM776 0l208 102v1142l-208 100 h638l-200 -100v-1142l196 -102h-634z" />
<glyph unicode="&#xaab;" horiz-adv-x="1500" d="M106 412q0 46 48 102q40 34 84 34l48 -8q10 -2 36 -12q24 -40 108 -90q108 -64 248 -64h32q108 0 192 50q102 60 108 132h-8q-40 126 -268 188l-516 -114l-72 66q-20 22 -20 48q4 86 20 120l360 34q-192 70 -192 230v10q4 132 124 198q108 60 272 60q120 0 268 -24 q12 -2 28 -6l20 4q42 26 84 158q12 38 20 38v-536l-84 110l-36 34q-12 8 -20 10q-52 8 -120 8q-24 0 -56 -2q-228 -8 -228 -172q0 -32 52 -66q50 -22 56 -22l604 76l72 -38q20 -14 20 -36l4 -42q-4 -30 -36 -64l-4 -8l-368 -50q40 0 156 -90q144 -114 144 -124v-16 q-8 -208 -216 -304q-140 -64 -328 -64q-64 0 -76 6l372 -260q-60 -110 -128 -112l-44 8h-4l-36 8q-38 14 -100 76l-16 20l-252 274q-128 34 -204 84q-36 14 -136 94q-12 22 -12 44z" />
<glyph unicode="&#xaac;" horiz-adv-x="1720" d="M112 840q0 262 120 396q92 96 212 96q32 0 84 -12l8 8q4 8 48 132q20 58 32 58v-602q0 2 -40 122q-28 88 -44 90q-32 2 -60 2q-64 0 -100 -66q-40 -74 -40 -222v-38q8 -338 224 -338q120 0 172 128q32 76 32 148v402q30 82 72 82q4 0 24 2l48 -4q40 -12 60 -58 q4 -10 8 -22v-206h260l-4 -210h-232l-20 -62q-4 -178 -124 -296q-112 -110 -272 -112l-116 8q-352 62 -352 574zM1028 -4l200 100l4 1110l-196 98h608l-200 -98v-1110l200 -100h-616z" />
<glyph unicode="&#xaad;" horiz-adv-x="1894" d="M140 680v26q0 310 156 490q156 168 396 168q152 0 268 -104q128 -110 128 -262v-140h232v-210h-228v-62q0 -80 -52 -142q-52 -70 -144 -70h-16q-104 6 -160 76q-52 66 -52 186q8 222 188 222v144q0 76 -60 120q-60 48 -136 52q-120 0 -208 -126q-88 -132 -88 -314 q0 -186 84 -346q24 -44 44 -76q4 -6 20 -6q24 0 176 42l44 8h4l-536 -394l4 20l104 182l12 36v6q-32 46 -76 120q-100 178 -104 354zM832 598l4 -32l12 -18h4q12 -10 26 -10t30 10q24 16 24 56q0 22 -20 38t-32 16t-20 -4q-28 -14 -28 -56zM1112 2l204 120v1134l-196 100 h636l-200 -100v-1134l196 -120h-640z" />
<glyph unicode="&#xaae;" horiz-adv-x="1364" d="M56 930v608q92 -200 96 -204q10 -10 18 -10h108q300 0 300 -268v-258h280v-210h-280v-90q0 -76 -70 -126q-66 -50 -178 -50q-118 0 -174 66q-60 66 -60 174q0 236 282 236v142q0 92 -8 120q-18 76 -80 76l-126 2l-14 -6q-14 -12 -88 -188zM282 538q2 -12 8 -20 q18 -26 48 -26q12 0 24 2q28 10 32 48l-2 26q-4 8 -14 20q-24 24 -44 24q-6 0 -12 -2q-20 -6 -32 -40zM640 2l218 102v1170l-214 88h636l-210 -88v-1170l210 -106z" />
<glyph unicode="&#xaaf;" horiz-adv-x="1758" d="M140 676v16q0 44 40 80q36 28 88 28h216q72 0 124 52q44 50 44 120q0 152 -152 152h-96l-96 -202v616l96 -202h232q128 0 208 -108q80 -110 80 -264q0 -84 -54 -172q-98 -156 -230 -156q-12 0 -72 6q-32 4 -68 4q-60 0 -64 -58l4 -54q12 -50 60 -94q88 -86 232 -86 t292 82q108 58 140 102l-4 -258q-200 -146 -408 -146q-232 0 -416 146q-196 154 -196 396zM960 0l204 98v1158l-204 100h634l-220 -100v-1158l220 -98h-634z" />
<glyph unicode="&#xab0;" horiz-adv-x="1270" d="M100 612v38q8 48 60 74h540q80 0 148 42q88 54 88 166q-4 196 -240 196h-364l-100 -202v614l100 -200h468q152 0 260 -114q112 -116 112 -290l-8 -96q-36 -180 -220 -264q-28 -10 -52 -20q-120 -38 -288 -44l56 -234l12 -38q4 -22 20 -24q12 -6 40 -6h336l100 206v-618 l-100 198h-508q-48 0 -80 28q-28 26 -48 98l-84 390h-188l-36 22q-24 20 -24 78z" />
<glyph unicode="&#xab1;" />
<glyph unicode="&#xab2;" horiz-adv-x="1618" d="M92 692q0 256 140 444t340 198l104 -4q64 -6 132 -26q60 -24 60 -80v-18l-4 -50l-12 -26q-16 -18 -48 -26q-72 30 -128 30q-156 0 -248 -118q-96 -120 -96 -326q0 -220 92 -344q96 -116 248 -116q60 0 96 22q32 22 40 26l36 -2q36 -12 36 -72v-14l-4 -42q-8 -34 -72 -88 l-96 -32q-16 -2 -40 -2q-172 0 -320 102q-60 40 -100 92q-156 196 -156 472zM508 638v46q4 66 24 86q16 18 48 24l504 2v-210h-504q-68 0 -72 52zM884 -4l200 100v1134l-200 100h640l-204 -100v-1134l200 -100h-636z" />
<glyph unicode="&#xab3;" horiz-adv-x="1802" d="M60 1266q0 -4 204 -100v-480q8 -324 36 -370q20 -158 56 -192q4 -6 72 -46l24 -16q92 -62 220 -62q104 0 184 50q120 76 152 282q8 42 8 88l-8 374q8 276 112 314q8 4 24 6q96 0 132 -56q16 -30 16 -94v-64v-794l-200 -102h652l-204 102v818q0 180 -60 284q-24 40 -52 52 l-132 64q-48 18 -96 18h-80q-168 -14 -252 -158l-16 -28q-64 -136 -64 -440q0 -12 8 -360q-60 -124 -132 -124l-40 6l-36 14q-48 22 -64 108q0 6 -8 42v764l204 100h-660z" />
<glyph unicode="&#xab4;" />
<glyph unicode="&#xab5;" horiz-adv-x="1508" d="M80 728q0 210 134 332q116 104 310 118q114 0 222 -38q44 -44 58 -84l-2 -42q-10 -42 -56 -68q-64 20 -158 20q-114 -8 -162 -48q-78 -62 -78 -216q0 -266 296 -266q106 0 220 70q86 52 104 80l4 -244q-192 -152 -398 -152t-334 110q-160 142 -160 428zM770 1318h656 l-200 -100v-1118l202 -100h-656l200 100l2 1118z" />
<glyph unicode="&#xab6;" horiz-adv-x="1726" d="M124 446v38q4 44 56 90h304q108 0 192 92q80 88 88 244q0 130 -60 196q-52 58 -140 64l-60 -6q-32 -6 -60 -26q-48 -38 -52 -106l8 -42q16 -56 92 -68q36 0 72 32q60 -8 64 -42l4 -22l4 -26q0 -20 -16 -44q-24 -26 -24 -28q-44 -28 -124 -28h-12q-112 6 -188 78 q-80 78 -80 206q0 154 96 232q96 80 252 80q192 0 316 -122q128 -128 128 -344q0 -292 -208 -406q-84 -48 -204 -62q96 -20 204 -144l4 -8l28 -26q4 -6 20 -48q12 -24 44 -72l4 -10l4 -44q-4 -34 -32 -66l-28 -30q-36 -30 -76 -30q-24 0 -44 10q-4 16 -56 130q-4 10 -8 16 q-32 96 -80 162q-56 66 -128 88q-40 10 -152 10h-92q-60 24 -60 82zM952 1356l224 -110v-340l-2 -206l4 -578l-222 -120h648l-220 118v1128l216 108h-648z" />
<glyph unicode="&#xab7;" horiz-adv-x="1684" d="M102 918l2 614l92 -218h262l664 -574l-2 -358q-12 2 -126 -60q-98 -54 -242 -54h-12q-188 8 -282 106q-108 116 -108 246l4 446l-4 30q-2 6 -6 10q-8 14 -44 14h-98zM576 640q0 -88 52 -134q54 -54 138 -54q150 0 252 76q76 56 84 90l-526 458v-436zM924 0l196 94l2 1154 l-198 104h600l-202 -104v-1154l200 -94h-598z" />
<glyph unicode="&#xab8;" horiz-adv-x="1710" d="M100 514v206h400q60 0 108 60q48 56 48 124v12q0 84 -48 136q-48 48 -112 48h-200l-100 -198v606l100 -200h300q132 0 228 -120q56 -76 64 -192v-108h288v-194h-352q-20 -36 -116 -120q-88 -60 -212 -60l48 -240l12 -38q8 -20 24 -22q12 -6 36 -6h204l104 200v-606 l-96 198h-384q-40 0 -76 26q-28 24 -44 96l-80 392h-144zM972 -2l204 102v1160l-204 98h620l-198 -100v-1158l200 -102h-622z" />
<glyph unicode="&#xab9;" horiz-adv-x="1268" d="M118 552q-12 322 280 436q-42 82 -42 156q0 184 336 184h20q112 0 188 4l10 6q10 6 56 108q16 36 26 38l-34 -502l-40 132q-20 54 -34 54h-34h-86h-12q-82 0 -118 -12q-72 -28 -72 -92q0 -56 94 -72q136 -22 184 -30q130 -22 214 -82q124 -88 124 -228q0 -176 -116 -236 q-78 -44 -244 -46q-52 0 -156 16q-78 12 -78 16q-54 8 -54 64q0 14 2 32l4 36q10 34 48 48q42 -14 178 -34l76 4q24 6 46 16q64 32 64 86q0 90 -110 144q-86 42 -212 42q-122 0 -202 -66q-88 -70 -94 -214l8 -90q18 -116 104 -182q110 -110 274 -110l120 4q168 16 220 48 q14 8 58 124q22 56 34 66l34 -564l-10 4q-24 48 -60 132q-24 56 -38 58q-122 -54 -358 -52q-254 0 -422 154t-176 400z" />
<glyph unicode="&#xaba;" horiz-adv-x="1342" />
<glyph unicode="&#xabb;" />
<glyph unicode="&#xabc;" horiz-adv-x="614" d="M136 168q0 78 48 126q48 50 124 50q72 0 120 -50q48 -56 48 -126q0 -64 -48 -120q-52 -54 -120 -54q-64 0 -120 52q-52 50 -52 122z" />
<glyph unicode="&#xabd;" horiz-adv-x="780" d="M-230 380q0 40 32 40q56 0 120 -100q34 -56 112 -96q82 -52 176 -52q334 0 334 264q0 142 -162 292l-306 242q-162 128 -162 190q0 80 88 142q92 64 208 64h490h126l114 -16q62 -14 70 -48q0 -44 -82 -96l-32 -20l-106 10h-538q-84 0 -84 -100q0 -78 162 -196l302 -230 q156 -138 162 -260v-4q0 -154 -122 -274q-128 -128 -338 -128q-176 0 -324 88q-148 90 -216 212q-24 44 -24 76z" />
<glyph unicode="&#xabe;" horiz-adv-x="726" d="M10 1354l220 -110v-348v-206v-578l-216 -110h644l-216 108v1136l216 108h-648z" />
<glyph unicode="&#xabf;" horiz-adv-x="642" d="M-68 -6l216 98l4 1078q0 270 136 422q140 158 400 158q396 -6 628 -186q132 -104 168 -200q16 -72 16 -76l-8 -28q-8 -18 -36 -22q-28 -20 -64 -22l-48 8q-44 14 -80 50l-48 72q-68 86 -160 136q-132 72 -300 72q-172 0 -264 -116q-88 -106 -88 -268v-1078l204 -98h-676z " />
<glyph unicode="&#xac0;" horiz-adv-x="738" d="M-670 1482q12 294 418 294q272 0 516 -234q190 -220 190 -454v-994l196 -96h-630l200 96l4 994q0 70 -124 300q-112 186 -292 190l-72 -4q-112 -20 -112 -142q0 -66 36 -158q-12 -42 -80 -68l-32 -12q-132 6 -144 80q-22 8 -58 82l-6 102z" />
<glyph unicode="&#xac1;" horiz-adv-x="122" d="M-1158 -454l348 368v-20l-40 -116v-14q32 -28 64 -52q104 -80 292 -152q64 -26 92 -28h96q56 8 100 34q64 42 64 102q0 156 -180 156q-96 0 -188 -80l-88 -2q-52 6 -64 40q-20 36 -24 64l8 40q8 14 20 40q132 90 356 90q180 0 300 -104q116 -106 116 -276 q0 -138 -108 -222q-116 -94 -308 -94q-32 0 -96 6q-160 18 -404 164q-108 62 -188 130l-16 -2l-136 -72h-16z" />
<glyph unicode="&#xac2;" horiz-adv-x="80" d="M-1052 -204q0 136 128 218q108 74 268 74q28 0 60 -2q188 -12 400 -232q144 -154 244 -350q0 -4 16 -4q68 0 156 28l-472 -232l88 120q-48 102 -84 152q-92 150 -232 276q-80 70 -120 74q-12 2 -36 2q-76 0 -112 -36q-44 -34 -44 -82l4 -52q8 -18 20 -34q32 -32 84 -36 l64 2q24 4 44 16q108 -2 116 -46q8 -14 8 -28l-4 -26q-12 -18 -36 -36q-52 -46 -172 -46q-28 0 -52 2q-128 10 -232 94q-104 86 -104 184z" />
<glyph unicode="&#xac3;" horiz-adv-x="80" d="M-908 -190q0 168 112 284q116 114 260 114h404q44 -30 56 -48t12 -44q0 -6 -4 -14v-46q-8 -48 -64 -56h-296q-84 0 -160 -46q-80 -54 -80 -138q0 -236 296 -236q92 0 208 68q8 4 8 40q0 70 -16 142l260 -476q-12 0 -84 58q-40 30 -64 30q-144 -64 -332 -64 q-220 0 -368 124q-148 120 -148 308z" />
<glyph unicode="&#xac4;" horiz-adv-x="0" d="M-312 166q0 100 60 170q60 66 160 66h168q48 -18 48 -40v-20q-4 -42 -48 -68h-148q-116 0 -116 -98l8 -38q12 -34 48 -54q52 -30 112 -30q52 0 104 22l68 30l36 -2q16 -4 24 -22v-10q8 -28 8 -30q0 -16 -20 -42q-68 -76 -204 -76l-76 8q-68 12 -128 52q-100 70 -104 182z M-240 -178q0 102 64 168q56 66 156 66h52v-128h-28q-116 0 -116 -98l4 -38l16 -28q16 -14 36 -26q48 -30 108 -30q56 0 104 24l28 16l-8 74l136 -234h-12l-52 38l-8 -2q-64 -42 -168 -46l-76 8q-68 12 -132 54q-104 70 -104 182z" />
<glyph unicode="&#xac5;" horiz-adv-x="0" d="M-1130 1864q0 14 20 44l76 28l92 -14l60 -88q108 -334 396 -334q96 0 180 30l56 -38l-20 -84l-32 -12q-92 -30 -248 -30q-296 0 -460 234q-64 92 -104 234q-16 14 -16 30z" />
<glyph unicode="&#xac6;" />
<glyph unicode="&#xac7;" horiz-adv-x="0" d="M-1270 1844q0 24 60 42q36 14 88 14q112 0 180 -50l76 -46l572 -444h-252l-712 444z" />
<glyph unicode="&#xac8;" horiz-adv-x="0" d="M-1212 1684l4 36v54q0 8 4 14q24 64 64 66l16 -2l136 -56l480 -296l-256 264l-40 96l24 88q24 12 64 12q64 0 96 -28l64 -88l312 -472l-304 4l-560 188q-50 12 -92 82q-12 20 -12 38z" />
<glyph unicode="&#xac9;" horiz-adv-x="756" d="M-308 1950q0 14 20 44l76 28l92 -14l60 -88q108 -334 396 -334q96 0 180 30l56 -38l-20 -84l-32 -12q-92 -30 -248 -30q-296 0 -460 234q-64 92 -104 234q-16 14 -16 30zM24 1346l224 -110v-348l-4 -206l4 -578l-220 -110h648l-220 108v1136l216 108h-648z" />
<glyph unicode="&#xaca;" />
<glyph unicode="&#xacb;" horiz-adv-x="768" d="M-474 1958q0 24 60 42q36 14 88 14q112 0 180 -50l76 -46l572 -444h-256l-708 444zM18 1326l224 -110v-326l-4 -206l4 -578l-220 -110h648l-220 108v1114l216 108h-648z" />
<glyph unicode="&#xacc;" horiz-adv-x="714" d="M-472 1748v36v54q4 8 8 14q24 64 60 66l20 -2l136 -56l480 -296l-256 264l-40 96l24 88q24 12 60 12q64 0 100 -28l64 -88l312 -464l-304 4l-560 180q-60 14 -96 82q-8 20 -8 38zM20 1344l224 -110v-344v-206v-578l-216 -110h644l-216 108v1132l216 108h-652z" />
<glyph unicode="&#xacd;" horiz-adv-x="278" d="M-280 158h320l308 -510l-4 -24q-8 -26 -100 -44l-44 4q-32 8 -96 74z" />
<glyph unicode="&#xace;" />
<glyph unicode="&#xacf;" />
<glyph unicode="&#xad0;" horiz-adv-x="2428" d="M112 286l508 376l-100 -182l24 -46q64 -106 126 -166q98 -88 192 -88q206 0 212 182l-6 72q-10 42 -32 76q-38 60 -102 60h-208q-50 48 -50 90q0 16 6 36l4 8l-4 32q6 24 46 42h206q120 0 124 178l-6 58q-32 108 -208 108q-76 0 -172 -20q-20 -4 -36 -6q-20 -4 -78 -162 q-16 -38 -18 -40v650l8 -6l24 -70q44 -164 50 -174l6 -4q166 32 266 32q412 -10 412 -326q0 -266 -140 -322q72 -54 84 -70q76 -90 76 -234q-8 -190 -132 -288q-124 -100 -334 -100q-232 0 -418 194q-70 76 -106 134q-4 6 -20 8q-24 0 -104 -20q-70 -18 -86 -18q-12 0 -14 6 zM856 1816q8 82 84 84q18 0 40 -4q62 -8 68 -10q20 -8 30 -30l10 -40q30 -234 282 -234q220 0 264 234q2 56 42 74q24 10 62 14l90 -16q34 -12 44 -44q4 -12 4 -28q-16 -110 -74 -194q-130 -194 -432 -194q-300 0 -436 194q-56 76 -78 194zM1258 1866q2 114 102 114 q42 0 76 -34q32 -34 32 -86q0 -44 -32 -74q-34 -34 -76 -34t-74 34q-28 36 -28 80zM1328 564v116v78q46 -8 82 -8q92 0 122 54l164 346q86 146 238 152q186 0 286 -178q100 -166 96 -436q-6 -284 -110 -466q-120 -208 -320 -208q-180 0 -298 76l-88 80q-28 54 -28 102 q0 38 16 72q26 46 62 46q14 0 40 -8q10 -28 82 -86q90 -70 176 -70q100 0 174 128q72 122 80 330l-4 120q-6 74 -28 138q-44 132 -124 132q-86 0 -144 -120l-112 -258q-70 -142 -262 -142q-24 0 -68 6q-32 2 -32 4z" />
<glyph unicode="&#xad1;" />
<glyph unicode="&#xad2;" />
<glyph unicode="&#xad3;" />
<glyph unicode="&#xad4;" />
<glyph unicode="&#xad5;" />
<glyph unicode="&#xad6;" />
<glyph unicode="&#xad7;" />
<glyph unicode="&#xad8;" />
<glyph unicode="&#xad9;" />
<glyph unicode="&#xada;" />
<glyph unicode="&#xadb;" />
<glyph unicode="&#xadc;" />
<glyph unicode="&#xadd;" />
<glyph unicode="&#xade;" />
<glyph unicode="&#xadf;" />
<glyph unicode="&#xae0;" horiz-adv-x="2464" d="M144 844q0 52 18 100q6 22 16 38q0 50 104 182q130 176 292 176q142 0 256 -162q78 -110 136 -304q34 -126 34 -164v-12l142 86l-2 490l-200 98l332 2l324 -2l-196 -98v-386l296 150q-16 28 -16 108q0 184 150 184q178 0 184 -184l-2 -74q-16 -100 -98 -136l178 -360 l-30 2l-68 -32q-16 -10 -34 -22q-144 -96 -144 -200q0 -114 84 -128h56q152 12 244 116l38 -2q36 -10 66 -52q14 -40 16 -52q0 -22 -28 -50q-22 -26 -116 -80q-128 -68 -228 -68l-108 8q-80 14 -140 60q-100 82 -104 224v30q0 132 128 236q88 72 110 76q6 2 12 2l-98 242 l-352 -204v-576l204 -98h-662l204 98v464l-612 -410q-104 -70 -132 -70q-6 0 -28 16q-80 54 -80 112q0 26 26 110l528 286q0 48 -76 256q-94 252 -184 254q-68 0 -138 -98q-46 -66 -96 -194q-34 -84 -34 -102l-30 -38q-12 -10 -26 -10q-20 0 -46 18q-14 10 -30 24 q-38 42 -40 120z" />
<glyph unicode="&#xae1;" />
<glyph unicode="&#xae2;" />
<glyph unicode="&#xae3;" />
<glyph unicode="&#xae4;" horiz-adv-x="722" d="M34 1336l220 -110v-326v-206v-578l-216 -110h644l-216 108v1114l216 108h-648z" />
<glyph unicode="&#xae5;" horiz-adv-x="1410" d="M-4 1328l220 -110v-326v-206v-578l-216 -110h644l-216 108v1114l216 108h-648zM690 1328l220 -110v-326v-206v-578l-216 -110h644l-216 108v1114l216 108h-648z" />
<glyph unicode="&#xae6;" horiz-adv-x="1286" d="M60 620q0 254 176 446q164 180 396 180h16q248 -10 412 -190q164 -182 164 -436q0 -256 -164 -438q-172 -182 -412 -182q-244 0 -416 182t-172 438zM392 620q4 -140 72 -250q72 -112 188 -112q112 0 180 112q64 110 64 250l-8 92q-12 90 -56 170q-64 110 -180 116l-52 -4 q-80 -20 -140 -116q-68 -104 -68 -258z" />
<glyph unicode="&#xae7;" horiz-adv-x="1064" d="M56 964v18q2 182 106 304q100 120 268 120q156 0 260 -86q106 -86 106 -230v-746q0 -84 88 -90q24 0 50 26q14 14 60 142q10 26 14 34l-2 -560l-62 180q-6 10 -10 10q-90 -22 -148 -20q-230 6 -230 248v346l-50 -40q-62 -30 -144 -32l-70 8q-72 22 -138 94 q-98 108 -98 274zM276 998l4 -66q10 -42 34 -78q38 -66 104 -66l48 4q30 12 56 36q38 40 38 50v220q0 46 -36 78q-36 30 -88 30q-70 0 -112 -58q-40 -58 -48 -150z" />
<glyph unicode="&#xae8;" horiz-adv-x="1146" d="M68 650q8 198 204 198q164 0 292 -220q232 68 232 264q0 118 -116 196q-96 62 -216 62q-132 0 -216 -16q-8 -12 -80 -210l-4 662l88 -238q8 -10 12 -12q72 18 208 18q236 0 408 -118q184 -134 184 -342q-4 -376 -452 -452l40 -104q60 -100 188 -100q44 0 96 12 q24 4 44 12q32 10 80 160q8 28 12 50l4 -646l-52 162q-24 64 -36 66q-116 -30 -204 -30q-244 0 -348 194q-52 100 -52 204q-312 26 -316 228z" />
<glyph unicode="&#xae9;" horiz-adv-x="998" d="M72 -200v618q36 -116 76 -174q12 -14 16 -14l56 -2q148 4 156 6l84 2l100 4v6q100 50 100 174q8 184 -336 198l-152 -10q-16 -2 -36 -6q-64 32 -64 84v32l8 46q8 28 44 40l16 8v-2q8 0 32 -4q12 -2 32 -6h84h28q288 16 304 140v12l-4 58q-20 54 -84 84q-60 26 -160 32 l-48 -2h-88h-4l-56 -2q-12 0 -24 -10q-28 -26 -80 -164l4 588l76 -190l12 -8l96 2q8 -2 120 -2q200 -2 336 -86q148 -94 152 -262l-8 -98q-20 -88 -76 -138q-20 -20 -96 -42q240 -60 240 -324q0 -186 -164 -302q-108 -76 -260 -84l-76 -2h-216h-44q-4 0 -44 -98 q-24 -54 -52 -102z" />
<glyph unicode="&#xaea;" horiz-adv-x="1250" d="M52 782v670l52 -172q16 -40 28 -44l176 -86q60 -32 176 -130q92 -80 92 -88l252 252l-64 238l432 -534l-224 104l-248 -222q20 -8 92 -122q88 -144 88 -266q0 -156 -104 -268q-104 -110 -252 -110q-160 0 -272 102q-120 104 -120 262v14q0 210 264 414q-52 50 -180 138 q-44 26 -104 44l-8 -4l-20 -32zM388 328q8 -44 36 -78q44 -50 112 -50q140 0 148 188l-8 58q-12 50 -56 112q-60 82 -76 82q-40 -34 -72 -82q-84 -98 -84 -172v-58z" />
<glyph unicode="&#xaeb;" horiz-adv-x="1458" d="M52 856v566l100 -184h152q48 0 112 -60q56 -58 56 -156l4 -424q0 -66 76 -116q60 -40 132 -40l88 8l72 20q94 26 108 48v-206q-34 14 -120 -50q-22 -16 -192 -14h-16q-160 2 -260 98q-104 104 -104 232v406q6 32 -32 44q-12 14 -44 14h-32zM752 0l204 94v1164l-204 94 h618l-200 -94v-1164l196 -94h-614z" />
<glyph unicode="&#xaec;" horiz-adv-x="1052" d="M78 1130q0 144 116 200q104 58 324 58q56 0 172 -22l36 -10l68 186v-518l-76 176l-4 2q-60 10 -156 22l-84 -4q-124 -20 -124 -128q0 -160 328 -160q76 0 92 6l56 -24l32 -68l-20 -60l-68 -38l-228 24h-72q-88 -10 -104 -98q-4 -12 -4 -20l8 -34q8 -20 84 -68 q8 -6 184 -54q336 -96 336 -248q0 -186 -220 -246q-52 -14 -120 -18l-20 -208l-124 520l92 -164q20 4 40 10q120 26 120 98q0 74 -96 106l-192 48q-176 50 -244 90q-116 66 -112 170q0 126 100 194q56 44 112 50q-64 26 -116 60q-116 82 -116 170z" />
<glyph unicode="&#xaed;" horiz-adv-x="1374" d="M68 678h436l-4 -14l-36 -24q-64 -32 -68 -48l-4 -134q0 -112 92 -176q76 -48 168 -48h12q152 6 244 68q72 52 100 134q20 40 20 58q0 8 -4 10q-516 0 -532 442l4 108q20 122 100 194q100 92 280 92h32q188 -10 300 -148q100 -130 100 -324q-8 -366 -92 -562 q-140 -304 -484 -304h-12q-264 6 -400 124q-124 110 -140 332q-12 104 -12 128q0 20 -56 48q-44 22 -44 44zM732 874q4 -144 164 -216q96 -46 160 -46q24 44 28 294q0 202 -184 206q-84 2 -124 -50q-44 -54 -44 -152v-36z" />
<glyph unicode="&#xaee;" horiz-adv-x="1198" d="M60 442q0 208 144 330l528 440l-96 216l504 -502l-268 82l-516 -428q-60 -48 -60 -164q0 -98 84 -156q68 -44 156 -44q136 0 272 190l72 -2q36 -6 100 -46q24 -32 24 -64q0 -20 -8 -52l-24 -66q-48 -50 -116 -88q-140 -88 -308 -88q-204 0 -348 120q-140 124 -140 322z " />
<glyph unicode="&#xaef;" horiz-adv-x="1296" d="M72 732q0 256 200 436q204 180 476 180l116 2q16 -2 56 122q28 90 44 92v-616q-12 0 -48 106q-32 90 -52 90q-84 -2 -96 -2q-164 0 -288 -118q-124 -112 -132 -276l8 -98q24 -116 112 -210q96 -94 300 -98h20q20 0 76 4q24 2 92 150q16 36 20 38v-612q-8 12 -64 132 q-28 62 -48 62l-120 2q-312 0 -484 168q-188 184 -188 446zM552 710l4 30l-4 38q4 34 44 56h576q52 -26 52 -88v-40q-4 -24 -44 -52q-4 -6 -8 -8h-576q-44 26 -44 64z" />
<glyph unicode="&#xaf0;" horiz-adv-x="1278" d="M56 626q0 254 176 446q164 180 396 180h16q248 -10 412 -190q164 -182 164 -436q0 -256 -164 -438q-172 -182 -412 -182q-244 0 -416 182t-172 438zM388 626q4 -140 72 -250q72 -112 188 -112q112 0 180 112q64 110 64 250l-8 92q-12 90 -56 170q-64 110 -180 116l-52 -4 q-80 -20 -140 -116q-68 -104 -68 -258z" />
<glyph unicode="&#xaf1;" horiz-adv-x="2438" d="M128 1586l248 -194l84 30q216 64 340 64q208 0 352 -88q156 -106 156 -276q0 -128 -68 -212q-36 -50 -124 -92q140 -48 228 -148q88 -106 92 -230q0 -172 -124 -290q-128 -118 -328 -150l180 -248q52 -74 52 -126q0 -20 -8 -40q-4 -6 -4 -14q-24 -14 -48 -14l-52 8 l-48 10l-332 412q-344 34 -344 196l8 72q28 88 152 88l76 -10q48 -10 104 -40q96 -54 152 -136q128 0 232 86q108 82 108 192q4 116 -160 212q-144 78 -296 78l-184 -44l-52 8q-48 14 -92 84q-28 38 -28 80q0 40 28 62h320q340 0 340 200q0 174 -312 182q-108 0 -240 -36 q-40 -10 -68 -22q-8 -4 -8 -26l12 -60l48 -160zM1668 190q0 150 144 228q80 46 180 46q164 0 264 -114q52 -76 52 -156q0 -138 -140 -228q-88 -46 -180 -46q-172 0 -264 118q-56 68 -56 152zM1780 188q0 -56 40 -104q64 -70 168 -70q72 0 128 36q80 52 80 140q0 60 -40 110 q-64 74 -168 74q-72 0 -120 -40q-88 -58 -88 -146z" />
<glyph unicode="&#xe000;" horiz-adv-x="900" d="M0 0v900h900v-900h-900z" />
</font>
</defs>
</svg>
